<mxfile host="app.diagrams.net" agent="Mozilla/5.0 (Windows NT 10.0; Win64; x64) AppleWebKit/537.36 (KHTML, like Gecko) Chrome/129.0.0.0 Safari/537.36" version="24.7.16">
  <diagram id="R2lEEEUBdFMjLlhIrx00" name="Page-1">
    <mxGraphModel grid="1" page="1" gridSize="10" guides="1" tooltips="1" connect="1" arrows="1" fold="1" pageScale="1" pageWidth="850" pageHeight="1100" math="0" shadow="0" extFonts="Permanent Marker^https://fonts.googleapis.com/css?family=Permanent+Marker">
      <root>
        <mxCell id="0" />
        <mxCell id="1" parent="0" />
        <mxCell id="ncbK7_a8ExB3OuaiVnW2-5" style="shape=link;rounded=0;orthogonalLoop=1;jettySize=auto;html=1;fontSize=6;verticalAlign=middle;" edge="1" parent="1" target="ncbK7_a8ExB3OuaiVnW2-3">
          <mxGeometry relative="1" as="geometry">
            <mxPoint x="530" y="748" as="sourcePoint" />
          </mxGeometry>
        </mxCell>
        <mxCell id="ncbK7_a8ExB3OuaiVnW2-2" value="PENGGUNA" style="rounded=0;whiteSpace=wrap;html=1;fontSize=10;flipH=1;flipV=0;" vertex="1" parent="1">
          <mxGeometry x="410" y="724.5" width="120" height="50" as="geometry" />
        </mxCell>
        <mxCell id="ncbK7_a8ExB3OuaiVnW2-3" value="D" style="ellipse;whiteSpace=wrap;html=1;aspect=fixed;fontSize=12;" vertex="1" parent="1">
          <mxGeometry x="615" y="728" width="40" height="40" as="geometry" />
        </mxCell>
        <mxCell id="ncbK7_a8ExB3OuaiVnW2-6" value="PELANGGAN" style="rounded=0;whiteSpace=wrap;html=1;fontSize=10;" vertex="1" parent="1">
          <mxGeometry x="575" y="352" width="120" height="50" as="geometry" />
        </mxCell>
        <mxCell id="ncbK7_a8ExB3OuaiVnW2-7" value="PEKERJA" style="rounded=0;whiteSpace=wrap;html=1;fontSize=10;strokeColor=default;" vertex="1" parent="1">
          <mxGeometry x="954.25" y="724.5" width="120" height="50" as="geometry" />
        </mxCell>
        <mxCell id="ncbK7_a8ExB3OuaiVnW2-9" value="" style="endArrow=none;html=1;rounded=0;fontSize=6;exitX=0.5;exitY=1;exitDx=0;exitDy=0;" edge="1" parent="1" source="ncbK7_a8ExB3OuaiVnW2-6" target="ncbK7_a8ExB3OuaiVnW2-3">
          <mxGeometry width="50" height="50" relative="1" as="geometry">
            <mxPoint x="472.3296291314455" y="470.20590477448764" as="sourcePoint" />
            <mxPoint x="160" y="432" as="targetPoint" />
          </mxGeometry>
        </mxCell>
        <mxCell id="ncbK7_a8ExB3OuaiVnW2-10" value="" style="endArrow=none;html=1;rounded=0;exitX=0;exitY=0.5;exitDx=0;exitDy=0;entryX=1;entryY=0.5;entryDx=0;entryDy=0;fontSize=6;" edge="1" parent="1" source="ncbK7_a8ExB3OuaiVnW2-7" target="ncbK7_a8ExB3OuaiVnW2-3">
          <mxGeometry width="50" height="50" relative="1" as="geometry">
            <mxPoint x="250" y="330" as="sourcePoint" />
            <mxPoint x="198" y="300" as="targetPoint" />
          </mxGeometry>
        </mxCell>
        <mxCell id="jWD2QJxZcPfSwVQkUWJp-1" value="&lt;div&gt;&lt;font style=&quot;font-size: 19px;&quot;&gt;Kode Etik Akademik:&lt;br&gt;&lt;/font&gt;&lt;/div&gt;&lt;font style=&quot;font-size: 19px;&quot;&gt;Dengan ini, saya menyatakan bahwa tugas ini sepenuhnya merupakan hasil kerja saya sendiri. Saya&lt;br style=&quot;&quot;&gt;tidak menyalin jawaban dari sumber manapun. Saya bertanggung jawab untuk memastikan bahwa&lt;br style=&quot;&quot;&gt;jawaban saya tidak disalin oleh peserta lain.&lt;/font&gt;&lt;div style=&quot;font-size: 19px;&quot;&gt;&lt;font style=&quot;font-size: 19px;&quot;&gt;&lt;br style=&quot;&quot;&gt;Muhammad Rafli Esa Pradana&lt;/font&gt;&lt;/div&gt;" style="rounded=0;whiteSpace=wrap;html=1;fontSize=6;align=left;verticalAlign=top;" vertex="1" parent="1">
          <mxGeometry x="-100" y="-160" width="380" height="310" as="geometry" />
        </mxCell>
        <mxCell id="_03kfTIoiXYOY-0oubUg-1" value="&lt;font style=&quot;font-size: 8px;&quot;&gt;&lt;u style=&quot;font-size: 8px;&quot;&gt;ID(EMAIL)&lt;/u&gt;&lt;/font&gt;" style="ellipse;whiteSpace=wrap;html=1;align=center;fontSize=8;flipH=1;flipV=0;" vertex="1" parent="1">
          <mxGeometry x="438.75" y="833" width="65" height="29" as="geometry" />
        </mxCell>
        <mxCell id="_03kfTIoiXYOY-0oubUg-4" value="Password" style="ellipse;whiteSpace=wrap;html=1;align=center;fontSize=8;flipH=1;flipV=0;" vertex="1" parent="1">
          <mxGeometry x="510" y="832" width="65" height="29" as="geometry" />
        </mxCell>
        <mxCell id="_03kfTIoiXYOY-0oubUg-5" value="No_handphone" style="ellipse;whiteSpace=wrap;html=1;align=center;fontSize=7;flipH=1;flipV=0;" vertex="1" parent="1">
          <mxGeometry x="335" y="666" width="65" height="29" as="geometry" />
        </mxCell>
        <mxCell id="_03kfTIoiXYOY-0oubUg-6" value="Nama" style="ellipse;whiteSpace=wrap;html=1;align=center;fontSize=8;flipH=0;flipV=1;" vertex="1" parent="1">
          <mxGeometry x="370" y="833" width="65" height="29" as="geometry" />
        </mxCell>
        <mxCell id="_03kfTIoiXYOY-0oubUg-7" value="Jenis_kelamin" style="ellipse;whiteSpace=wrap;html=1;align=center;fontSize=7;flipH=1;flipV=0;" vertex="1" parent="1">
          <mxGeometry x="540" y="666" width="65" height="29" as="geometry" />
        </mxCell>
        <mxCell id="_03kfTIoiXYOY-0oubUg-8" value="Tanggal_lahir" style="ellipse;whiteSpace=wrap;html=1;align=center;fontSize=7;flipH=1;flipV=0;" vertex="1" parent="1">
          <mxGeometry x="475.11" y="641.5" width="65" height="29" as="geometry" />
        </mxCell>
        <mxCell id="_03kfTIoiXYOY-0oubUg-9" value="Alamat" style="ellipse;whiteSpace=wrap;html=1;align=center;fontSize=8;flipH=1;flipV=0;" vertex="1" parent="1">
          <mxGeometry x="398.75" y="641.5" width="65" height="29" as="geometry" />
        </mxCell>
        <mxCell id="_03kfTIoiXYOY-0oubUg-22" value="NPWP" style="ellipse;whiteSpace=wrap;html=1;align=center;fontSize=8;" vertex="1" parent="1">
          <mxGeometry x="944" y="806.5" width="65" height="30" as="geometry" />
        </mxCell>
        <mxCell id="_03kfTIoiXYOY-0oubUg-23" value="Foto_profil" style="ellipse;whiteSpace=wrap;html=1;align=center;fontSize=8;" vertex="1" parent="1">
          <mxGeometry x="876.25" y="806.5" width="65" height="30" as="geometry" />
        </mxCell>
        <mxCell id="_03kfTIoiXYOY-0oubUg-24" value="Informasi_bank" style="ellipse;whiteSpace=wrap;html=1;align=center;fontSize=7;" vertex="1" parent="1">
          <mxGeometry x="1011.25" y="806.5" width="65" height="30" as="geometry" />
        </mxCell>
        <mxCell id="_03kfTIoiXYOY-0oubUg-36" value="Nama_bank" style="ellipse;whiteSpace=wrap;html=1;align=center;fontSize=8;" vertex="1" parent="1">
          <mxGeometry x="975" y="856.5" width="65" height="30" as="geometry" />
        </mxCell>
        <mxCell id="_03kfTIoiXYOY-0oubUg-37" value="No_rek" style="ellipse;whiteSpace=wrap;html=1;align=center;fontSize=8;" vertex="1" parent="1">
          <mxGeometry x="1048.25" y="856.5" width="65" height="30" as="geometry" />
        </mxCell>
        <mxCell id="uouoK4kSIx4TAbE6jxIn-6" style="rounded=0;orthogonalLoop=1;jettySize=auto;html=1;endArrow=none;endFill=0;exitX=0.483;exitY=0.014;exitDx=0;exitDy=0;exitPerimeter=0;entryX=0.5;entryY=1;entryDx=0;entryDy=0;" edge="1" parent="1" source="_03kfTIoiXYOY-0oubUg-45" target="uouoK4kSIx4TAbE6jxIn-5">
          <mxGeometry relative="1" as="geometry">
            <mxPoint x="1506.5" y="-82.98" as="targetPoint" />
            <mxPoint x="1456.5" y="-43.980000000000004" as="sourcePoint" />
          </mxGeometry>
        </mxCell>
        <mxCell id="_03kfTIoiXYOY-0oubUg-45" value="METODE_BAYAR" style="rounded=0;whiteSpace=wrap;html=1;fontSize=10;" vertex="1" parent="1">
          <mxGeometry x="1129" y="6.519999999999996" width="120" height="50" as="geometry" />
        </mxCell>
        <mxCell id="uouoK4kSIx4TAbE6jxIn-3" value="&lt;u style=&quot;font-size: 8px;&quot;&gt;Kode&lt;/u&gt;" style="ellipse;whiteSpace=wrap;html=1;align=center;fontSize=8;" vertex="1" parent="1">
          <mxGeometry x="1114" y="-48.480000000000004" width="65" height="29" as="geometry" />
        </mxCell>
        <mxCell id="uouoK4kSIx4TAbE6jxIn-4" style="rounded=0;orthogonalLoop=1;jettySize=auto;html=1;entryX=0.465;entryY=1.011;entryDx=0;entryDy=0;entryPerimeter=0;endArrow=none;endFill=0;exitX=0.473;exitY=-0.009;exitDx=0;exitDy=0;exitPerimeter=0;" edge="1" parent="1" source="_03kfTIoiXYOY-0oubUg-45" target="uouoK4kSIx4TAbE6jxIn-3">
          <mxGeometry relative="1" as="geometry" />
        </mxCell>
        <mxCell id="uouoK4kSIx4TAbE6jxIn-5" value="Nama" style="ellipse;whiteSpace=wrap;html=1;align=center;fontSize=8;" vertex="1" parent="1">
          <mxGeometry x="1201.5" y="-48.480000000000004" width="65" height="29" as="geometry" />
        </mxCell>
        <mxCell id="uouoK4kSIx4TAbE6jxIn-7" value="KATEGORI_JASA" style="rounded=0;whiteSpace=wrap;html=1;fontSize=10;" vertex="1" parent="1">
          <mxGeometry x="1095" y="466" width="120" height="50" as="geometry" />
        </mxCell>
        <mxCell id="uouoK4kSIx4TAbE6jxIn-33" value="" style="endArrow=none;html=1;rounded=0;exitX=0.5;exitY=1;exitDx=0;exitDy=0;entryX=1;entryY=0;entryDx=0;entryDy=0;" edge="1" parent="1" source="ncbK7_a8ExB3OuaiVnW2-7" target="_03kfTIoiXYOY-0oubUg-23">
          <mxGeometry relative="1" as="geometry">
            <mxPoint x="982" y="850" as="sourcePoint" />
            <mxPoint x="860.5" y="909.74" as="targetPoint" />
          </mxGeometry>
        </mxCell>
        <mxCell id="uouoK4kSIx4TAbE6jxIn-34" value="" style="endArrow=none;html=1;rounded=0;entryX=0.5;entryY=0;entryDx=0;entryDy=0;exitX=0.5;exitY=1;exitDx=0;exitDy=0;" edge="1" parent="1" source="ncbK7_a8ExB3OuaiVnW2-7" target="_03kfTIoiXYOY-0oubUg-22">
          <mxGeometry relative="1" as="geometry">
            <mxPoint x="982.5" y="785.74" as="sourcePoint" />
            <mxPoint x="865.5" y="890" as="targetPoint" />
          </mxGeometry>
        </mxCell>
        <mxCell id="uouoK4kSIx4TAbE6jxIn-35" value="" style="endArrow=none;html=1;rounded=0;entryX=0.5;entryY=0;entryDx=0;entryDy=0;exitX=0.5;exitY=1;exitDx=0;exitDy=0;" edge="1" parent="1" source="ncbK7_a8ExB3OuaiVnW2-7" target="_03kfTIoiXYOY-0oubUg-24">
          <mxGeometry relative="1" as="geometry">
            <mxPoint x="979.5" y="850" as="sourcePoint" />
            <mxPoint x="930.5" y="890" as="targetPoint" />
          </mxGeometry>
        </mxCell>
        <mxCell id="uouoK4kSIx4TAbE6jxIn-36" value="" style="endArrow=none;html=1;rounded=0;entryX=0.5;entryY=0;entryDx=0;entryDy=0;exitX=0.5;exitY=1;exitDx=0;exitDy=0;" edge="1" parent="1" source="_03kfTIoiXYOY-0oubUg-24" target="_03kfTIoiXYOY-0oubUg-37">
          <mxGeometry relative="1" as="geometry">
            <mxPoint x="905.75" y="907.24" as="sourcePoint" />
            <mxPoint x="1008.25" y="947.24" as="targetPoint" />
          </mxGeometry>
        </mxCell>
        <mxCell id="uouoK4kSIx4TAbE6jxIn-37" value="" style="endArrow=none;html=1;rounded=0;entryX=0.5;entryY=0;entryDx=0;entryDy=0;exitX=0.5;exitY=1;exitDx=0;exitDy=0;" edge="1" parent="1" source="_03kfTIoiXYOY-0oubUg-24" target="_03kfTIoiXYOY-0oubUg-36">
          <mxGeometry relative="1" as="geometry">
            <mxPoint x="845.75" y="917.24" as="sourcePoint" />
            <mxPoint x="880.75" y="947.24" as="targetPoint" />
          </mxGeometry>
        </mxCell>
        <mxCell id="uouoK4kSIx4TAbE6jxIn-41" value="Nama" style="ellipse;whiteSpace=wrap;html=1;align=center;fontSize=8;" vertex="1" parent="1">
          <mxGeometry x="699" y="542" width="65" height="30" as="geometry" />
        </mxCell>
        <mxCell id="uouoK4kSIx4TAbE6jxIn-43" value="" style="endArrow=none;html=1;rounded=0;exitX=0.5;exitY=0;exitDx=0;exitDy=0;entryX=0.5;entryY=1;entryDx=0;entryDy=0;" edge="1" parent="1" source="uouoK4kSIx4TAbE6jxIn-41" target="MQe5v7_Gc90HaRo5Ww73-159">
          <mxGeometry relative="1" as="geometry">
            <mxPoint x="763" y="547" as="sourcePoint" />
            <mxPoint x="794" y="508" as="targetPoint" />
          </mxGeometry>
        </mxCell>
        <mxCell id="uouoK4kSIx4TAbE6jxIn-44" value="Deskripsi" style="ellipse;whiteSpace=wrap;html=1;align=center;fontSize=8;" vertex="1" parent="1">
          <mxGeometry x="766.25" y="544.5" width="65" height="30" as="geometry" />
        </mxCell>
        <mxCell id="uouoK4kSIx4TAbE6jxIn-45" value="" style="endArrow=none;html=1;rounded=0;exitX=0.5;exitY=0;exitDx=0;exitDy=0;entryX=0.5;entryY=1;entryDx=0;entryDy=0;" edge="1" parent="1" source="uouoK4kSIx4TAbE6jxIn-44" target="MQe5v7_Gc90HaRo5Ww73-159">
          <mxGeometry relative="1" as="geometry">
            <mxPoint x="767" y="557" as="sourcePoint" />
            <mxPoint x="824" y="508" as="targetPoint" />
          </mxGeometry>
        </mxCell>
        <mxCell id="uouoK4kSIx4TAbE6jxIn-47" value="" style="endArrow=none;html=1;rounded=0;exitX=0.415;exitY=0.052;exitDx=0;exitDy=0;entryX=0.5;entryY=1;entryDx=0;entryDy=0;exitPerimeter=0;" edge="1" parent="1" source="uouoK4kSIx4TAbE6jxIn-50" target="MQe5v7_Gc90HaRo5Ww73-159">
          <mxGeometry relative="1" as="geometry">
            <mxPoint x="926.5" y="547" as="sourcePoint" />
            <mxPoint x="855.6799999999998" y="508.9499999999998" as="targetPoint" />
          </mxGeometry>
        </mxCell>
        <mxCell id="uouoK4kSIx4TAbE6jxIn-50" value="Sesi_layanan" style="ellipse;shape=doubleEllipse;margin=3;whiteSpace=wrap;html=1;align=center;fontSize=8;" vertex="1" parent="1">
          <mxGeometry x="833.75" y="542" width="65" height="30" as="geometry" />
        </mxCell>
        <mxCell id="IohPTmHqKFWFCZx8HS5S-1" value="DISKON" style="rounded=0;whiteSpace=wrap;html=1;fontSize=10;" vertex="1" parent="1">
          <mxGeometry x="913.75" y="16" width="120" height="50" as="geometry" />
        </mxCell>
        <mxCell id="IohPTmHqKFWFCZx8HS5S-2" value="VOUCHER" style="rounded=0;whiteSpace=wrap;html=1;fontSize=10;" vertex="1" parent="1">
          <mxGeometry x="450" y="-81" width="120" height="50" as="geometry" />
        </mxCell>
        <mxCell id="IohPTmHqKFWFCZx8HS5S-3" value="PROMO" style="rounded=0;whiteSpace=wrap;html=1;fontSize=10;" vertex="1" parent="1">
          <mxGeometry x="682.25" y="31.5" width="120" height="50" as="geometry" />
        </mxCell>
        <mxCell id="IohPTmHqKFWFCZx8HS5S-4" value="&lt;u&gt;Kode&lt;/u&gt;" style="ellipse;whiteSpace=wrap;html=1;align=center;fontSize=8;" vertex="1" parent="1">
          <mxGeometry x="824.25" y="31" width="65" height="30" as="geometry" />
        </mxCell>
        <mxCell id="IohPTmHqKFWFCZx8HS5S-5" value="" style="endArrow=none;html=1;rounded=0;entryX=1;entryY=0.5;entryDx=0;entryDy=0;exitX=0;exitY=0.5;exitDx=0;exitDy=0;" edge="1" parent="1" source="IohPTmHqKFWFCZx8HS5S-1" target="IohPTmHqKFWFCZx8HS5S-4">
          <mxGeometry width="50" height="50" relative="1" as="geometry">
            <mxPoint x="923.75" y="76" as="sourcePoint" />
            <mxPoint x="973.75" y="26" as="targetPoint" />
          </mxGeometry>
        </mxCell>
        <mxCell id="IohPTmHqKFWFCZx8HS5S-6" value="Transaksi_minimal" style="ellipse;whiteSpace=wrap;html=1;align=center;fontSize=8;" vertex="1" parent="1">
          <mxGeometry x="824.25" y="68.5" width="65" height="30" as="geometry" />
        </mxCell>
        <mxCell id="IohPTmHqKFWFCZx8HS5S-7" value="" style="endArrow=none;html=1;rounded=0;entryX=-0.001;entryY=0.659;entryDx=0;entryDy=0;exitX=1;exitY=0.5;exitDx=0;exitDy=0;entryPerimeter=0;" edge="1" parent="1" source="IohPTmHqKFWFCZx8HS5S-6" target="IohPTmHqKFWFCZx8HS5S-1">
          <mxGeometry width="50" height="50" relative="1" as="geometry">
            <mxPoint x="873.75" y="41" as="sourcePoint" />
            <mxPoint x="913.75" y="40.75999999999999" as="targetPoint" />
          </mxGeometry>
        </mxCell>
        <mxCell id="IohPTmHqKFWFCZx8HS5S-8" value="Potongan_harga" style="ellipse;whiteSpace=wrap;html=1;align=center;fontSize=8;" vertex="1" parent="1">
          <mxGeometry x="824.25" y="107" width="65" height="30" as="geometry" />
        </mxCell>
        <mxCell id="IohPTmHqKFWFCZx8HS5S-9" value="" style="endArrow=none;html=1;rounded=0;entryX=0;entryY=1;entryDx=0;entryDy=0;exitX=0.997;exitY=0.41;exitDx=0;exitDy=0;exitPerimeter=0;" edge="1" parent="1" source="IohPTmHqKFWFCZx8HS5S-8" target="IohPTmHqKFWFCZx8HS5S-1">
          <mxGeometry width="50" height="50" relative="1" as="geometry">
            <mxPoint x="1031.25" y="16" as="sourcePoint" />
            <mxPoint x="1076.25" y="45.75999999999999" as="targetPoint" />
          </mxGeometry>
        </mxCell>
        <mxCell id="IohPTmHqKFWFCZx8HS5S-18" value="QUANTITY" style="ellipse;whiteSpace=wrap;html=1;align=center;fontSize=8;" vertex="1" parent="1">
          <mxGeometry x="550" y="-160" width="65" height="30" as="geometry" />
        </mxCell>
        <mxCell id="IohPTmHqKFWFCZx8HS5S-19" value="MASA_BERLAKU" style="ellipse;whiteSpace=wrap;html=1;align=center;fontSize=7;" vertex="1" parent="1">
          <mxGeometry x="475" y="-160" width="65" height="30" as="geometry" />
        </mxCell>
        <mxCell id="IohPTmHqKFWFCZx8HS5S-25" value="Batas_waktu" style="ellipse;whiteSpace=wrap;html=1;align=center;fontSize=7;" vertex="1" parent="1">
          <mxGeometry x="576.25" y="41.5" width="65" height="30" as="geometry" />
        </mxCell>
        <mxCell id="IohPTmHqKFWFCZx8HS5S-28" value="HARGA" style="ellipse;whiteSpace=wrap;html=1;align=center;fontSize=7;" vertex="1" parent="1">
          <mxGeometry x="405" y="-160" width="65" height="30" as="geometry" />
        </mxCell>
        <mxCell id="ysO53gmpqXJOio8Yze6U-2" value="" style="shape=link;html=1;rounded=0;entryX=0.5;entryY=1;entryDx=0;entryDy=0;" edge="1" parent="1" source="ysO53gmpqXJOio8Yze6U-1" target="uouoK4kSIx4TAbE6jxIn-7">
          <mxGeometry relative="1" as="geometry">
            <mxPoint x="1199" y="594.2600000000002" as="sourcePoint" />
            <mxPoint x="1249" y="650" as="targetPoint" />
          </mxGeometry>
        </mxCell>
        <mxCell id="MQe5v7_Gc90HaRo5Ww73-266" value="M" style="edgeLabel;html=1;align=center;verticalAlign=middle;resizable=0;points=[];" connectable="0" vertex="1" parent="ysO53gmpqXJOio8Yze6U-2">
          <mxGeometry x="-0.654" relative="1" as="geometry">
            <mxPoint x="-21" as="offset" />
          </mxGeometry>
        </mxCell>
        <mxCell id="ysO53gmpqXJOio8Yze6U-8" value="" style="shape=link;html=1;rounded=0;entryX=0.5;entryY=1;entryDx=0;entryDy=0;" edge="1" parent="1" source="ncbK7_a8ExB3OuaiVnW2-7" target="ysO53gmpqXJOio8Yze6U-1">
          <mxGeometry relative="1" as="geometry">
            <mxPoint x="1038" y="768.84" as="sourcePoint" />
            <mxPoint x="1368" y="768.84" as="targetPoint" />
          </mxGeometry>
        </mxCell>
        <mxCell id="MQe5v7_Gc90HaRo5Ww73-265" value="N" style="edgeLabel;html=1;align=center;verticalAlign=middle;resizable=0;points=[];" connectable="0" vertex="1" parent="ysO53gmpqXJOio8Yze6U-8">
          <mxGeometry x="-0.4634" y="1" relative="1" as="geometry">
            <mxPoint x="-12" y="-30" as="offset" />
          </mxGeometry>
        </mxCell>
        <mxCell id="ysO53gmpqXJOio8Yze6U-1" value="MENYEDIAKAN" style="shape=rhombus;perimeter=rhombusPerimeter;whiteSpace=wrap;html=1;align=center;fontSize=10;" vertex="1" parent="1">
          <mxGeometry x="954.25" y="611" width="120" height="60" as="geometry" />
        </mxCell>
        <mxCell id="ysO53gmpqXJOio8Yze6U-18" value="" style="html=1;rounded=0;exitX=1;exitY=0.5;exitDx=0;exitDy=0;entryX=0.019;entryY=0.493;entryDx=0;entryDy=0;entryPerimeter=0;endArrow=none;endFill=0;" edge="1" parent="1" source="ncbK7_a8ExB3OuaiVnW2-6" target="MQe5v7_Gc90HaRo5Ww73-122">
          <mxGeometry relative="1" as="geometry">
            <mxPoint x="694.9999999999998" y="247" as="sourcePoint" />
            <mxPoint x="901" y="132" as="targetPoint" />
          </mxGeometry>
        </mxCell>
        <mxCell id="MQe5v7_Gc90HaRo5Ww73-238" value="1" style="edgeLabel;html=1;align=center;verticalAlign=middle;resizable=0;points=[];" connectable="0" vertex="1" parent="ysO53gmpqXJOio8Yze6U-18">
          <mxGeometry x="0.8601" y="3" relative="1" as="geometry">
            <mxPoint x="-2" y="-6" as="offset" />
          </mxGeometry>
        </mxCell>
        <mxCell id="ysO53gmpqXJOio8Yze6U-43" value="U" style="ellipse;whiteSpace=wrap;html=1;" vertex="1" parent="1">
          <mxGeometry x="729.75" y="-68" width="25" height="25" as="geometry" />
        </mxCell>
        <mxCell id="ysO53gmpqXJOio8Yze6U-46" value="" style="endArrow=none;html=1;rounded=0;entryX=1;entryY=0.5;entryDx=0;entryDy=0;exitX=0;exitY=0;exitDx=0;exitDy=0;" edge="1" parent="1" source="IohPTmHqKFWFCZx8HS5S-1" target="ysO53gmpqXJOio8Yze6U-43">
          <mxGeometry relative="1" as="geometry">
            <mxPoint x="878.75" y="55" as="sourcePoint" />
            <mxPoint x="1038.75" y="55" as="targetPoint" />
          </mxGeometry>
        </mxCell>
        <mxCell id="ysO53gmpqXJOio8Yze6U-47" value="" style="resizable=0;html=1;whiteSpace=wrap;align=right;verticalAlign=bottom;" connectable="0" vertex="1" parent="ysO53gmpqXJOio8Yze6U-46">
          <mxGeometry x="1" relative="1" as="geometry" />
        </mxCell>
        <mxCell id="ysO53gmpqXJOio8Yze6U-55" value="" style="endArrow=none;html=1;rounded=0;exitX=0.5;exitY=1;exitDx=0;exitDy=0;entryX=0.5;entryY=0;entryDx=0;entryDy=0;" edge="1" parent="1" source="IohPTmHqKFWFCZx8HS5S-28" target="IohPTmHqKFWFCZx8HS5S-2">
          <mxGeometry relative="1" as="geometry">
            <mxPoint x="695" y="-250.75" as="sourcePoint" />
            <mxPoint x="855" y="-250.75" as="targetPoint" />
          </mxGeometry>
        </mxCell>
        <mxCell id="ysO53gmpqXJOio8Yze6U-57" value="" style="endArrow=none;html=1;rounded=0;exitX=0.5;exitY=1;exitDx=0;exitDy=0;entryX=0.5;entryY=0;entryDx=0;entryDy=0;" edge="1" parent="1" source="IohPTmHqKFWFCZx8HS5S-19" target="IohPTmHqKFWFCZx8HS5S-2">
          <mxGeometry relative="1" as="geometry">
            <mxPoint x="695" y="-250.75" as="sourcePoint" />
            <mxPoint x="855" y="-250.75" as="targetPoint" />
          </mxGeometry>
        </mxCell>
        <mxCell id="ysO53gmpqXJOio8Yze6U-58" value="" style="endArrow=none;html=1;rounded=0;exitX=0.5;exitY=1;exitDx=0;exitDy=0;entryX=0.5;entryY=0;entryDx=0;entryDy=0;" edge="1" parent="1" source="IohPTmHqKFWFCZx8HS5S-18" target="IohPTmHqKFWFCZx8HS5S-2">
          <mxGeometry relative="1" as="geometry">
            <mxPoint x="753" y="-325.75" as="sourcePoint" />
            <mxPoint x="813" y="-245.75" as="targetPoint" />
          </mxGeometry>
        </mxCell>
        <mxCell id="ysO53gmpqXJOio8Yze6U-59" value="" style="endArrow=none;html=1;rounded=0;exitX=1;exitY=0.5;exitDx=0;exitDy=0;entryX=0;entryY=0.5;entryDx=0;entryDy=0;" edge="1" parent="1" source="IohPTmHqKFWFCZx8HS5S-25" target="IohPTmHqKFWFCZx8HS5S-3">
          <mxGeometry relative="1" as="geometry">
            <mxPoint x="978.75" y="-286" as="sourcePoint" />
            <mxPoint x="1108.75" y="-276" as="targetPoint" />
          </mxGeometry>
        </mxCell>
        <mxCell id="ysO53gmpqXJOio8Yze6U-60" value="" style="endArrow=none;html=1;rounded=0;exitX=1;exitY=0.5;exitDx=0;exitDy=0;entryX=0;entryY=0.5;entryDx=0;entryDy=0;" edge="1" parent="1" source="IohPTmHqKFWFCZx8HS5S-2" target="ysO53gmpqXJOio8Yze6U-43">
          <mxGeometry relative="1" as="geometry">
            <mxPoint x="1073.75" y="-110" as="sourcePoint" />
            <mxPoint x="1233.75" y="-110" as="targetPoint" />
          </mxGeometry>
        </mxCell>
        <mxCell id="ysO53gmpqXJOio8Yze6U-61" value="" style="endArrow=none;html=1;rounded=0;entryX=0.5;entryY=1;entryDx=0;entryDy=0;exitX=0.5;exitY=0;exitDx=0;exitDy=0;" edge="1" parent="1" source="IohPTmHqKFWFCZx8HS5S-3" target="ysO53gmpqXJOio8Yze6U-43">
          <mxGeometry relative="1" as="geometry">
            <mxPoint x="720" y="100" as="sourcePoint" />
            <mxPoint x="1006.75" y="-136" as="targetPoint" />
          </mxGeometry>
        </mxCell>
        <mxCell id="ysO53gmpqXJOio8Yze6U-69" value="" style="shape=link;html=1;rounded=0;exitX=0;exitY=0.5;exitDx=0;exitDy=0;entryX=1.015;entryY=0.51;entryDx=0;entryDy=0;entryPerimeter=0;" edge="1" parent="1" target="MQe5v7_Gc90HaRo5Ww73-122">
          <mxGeometry relative="1" as="geometry">
            <mxPoint x="1277.5" y="243.5" as="sourcePoint" />
            <mxPoint x="1154" y="130" as="targetPoint" />
          </mxGeometry>
        </mxCell>
        <mxCell id="MQe5v7_Gc90HaRo5Ww73-241" value="N" style="edgeLabel;html=1;align=center;verticalAlign=middle;resizable=0;points=[];" connectable="0" vertex="1" parent="ysO53gmpqXJOio8Yze6U-69">
          <mxGeometry x="0.9146" relative="1" as="geometry">
            <mxPoint x="-3" y="-14" as="offset" />
          </mxGeometry>
        </mxCell>
        <mxCell id="ysO53gmpqXJOio8Yze6U-70" value="" style="shape=link;html=1;rounded=0;entryX=0.5;entryY=0;entryDx=0;entryDy=0;exitX=0.5;exitY=1;exitDx=0;exitDy=0;" edge="1" parent="1" source="MQe5v7_Gc90HaRo5Ww73-122" target="uouoK4kSIx4TAbE6jxIn-7">
          <mxGeometry relative="1" as="geometry">
            <mxPoint x="1094" y="160" as="sourcePoint" />
            <mxPoint x="1160" y="624.2600000000002" as="targetPoint" />
          </mxGeometry>
        </mxCell>
        <mxCell id="MQe5v7_Gc90HaRo5Ww73-242" value="1" style="edgeLabel;html=1;align=center;verticalAlign=middle;resizable=0;points=[];" connectable="0" vertex="1" parent="ysO53gmpqXJOio8Yze6U-70">
          <mxGeometry x="-0.6654" y="-3" relative="1" as="geometry">
            <mxPoint x="-27" y="-20" as="offset" />
          </mxGeometry>
        </mxCell>
        <mxCell id="ysO53gmpqXJOio8Yze6U-71" value="MEMBELI" style="shape=rhombus;perimeter=rhombusPerimeter;whiteSpace=wrap;html=1;align=center;fontSize=10;" vertex="1" parent="1">
          <mxGeometry x="450" y="117" width="120" height="60" as="geometry" />
        </mxCell>
        <mxCell id="ysO53gmpqXJOio8Yze6U-72" value="" style="endArrow=none;html=1;rounded=0;fontSize=6;exitX=0.5;exitY=0;exitDx=0;exitDy=0;entryX=0.5;entryY=1;entryDx=0;entryDy=0;" edge="1" parent="1" source="ncbK7_a8ExB3OuaiVnW2-6" target="ysO53gmpqXJOio8Yze6U-71">
          <mxGeometry width="50" height="50" relative="1" as="geometry">
            <mxPoint x="585" y="280" as="sourcePoint" />
            <mxPoint x="442" y="369" as="targetPoint" />
          </mxGeometry>
        </mxCell>
        <mxCell id="MQe5v7_Gc90HaRo5Ww73-243" value="N" style="edgeLabel;html=1;align=center;verticalAlign=middle;resizable=0;points=[];" connectable="0" vertex="1" parent="ysO53gmpqXJOio8Yze6U-72">
          <mxGeometry x="-0.8348" y="1" relative="1" as="geometry">
            <mxPoint x="116" y="-141" as="offset" />
          </mxGeometry>
        </mxCell>
        <mxCell id="ysO53gmpqXJOio8Yze6U-76" value="" style="endArrow=none;html=1;rounded=0;fontSize=6;exitX=0.5;exitY=0;exitDx=0;exitDy=0;entryX=0.5;entryY=1;entryDx=0;entryDy=0;shape=link;" edge="1" parent="1" source="MQe5v7_Gc90HaRo5Ww73-187" target="MQe5v7_Gc90HaRo5Ww73-121">
          <mxGeometry width="50" height="50" relative="1" as="geometry">
            <mxPoint x="1204.5" y="218" as="sourcePoint" />
            <mxPoint x="1204.5" y="73" as="targetPoint" />
          </mxGeometry>
        </mxCell>
        <mxCell id="MQe5v7_Gc90HaRo5Ww73-259" value="N" style="edgeLabel;html=1;align=center;verticalAlign=middle;resizable=0;points=[];" connectable="0" vertex="1" parent="ysO53gmpqXJOio8Yze6U-76">
          <mxGeometry x="0.7766" y="-3" relative="1" as="geometry">
            <mxPoint x="8" y="-5" as="offset" />
          </mxGeometry>
        </mxCell>
        <mxCell id="ysO53gmpqXJOio8Yze6U-77" value="" style="endArrow=none;html=1;rounded=0;fontSize=6;exitX=0.5;exitY=0;exitDx=0;exitDy=0;entryX=0.5;entryY=1;entryDx=0;entryDy=0;shape=link;" edge="1" parent="1" source="MQe5v7_Gc90HaRo5Ww73-121" target="_03kfTIoiXYOY-0oubUg-45">
          <mxGeometry width="50" height="50" relative="1" as="geometry">
            <mxPoint x="1266.5" y="88.02" as="sourcePoint" />
            <mxPoint x="1396.5" y="7.019999999999996" as="targetPoint" />
          </mxGeometry>
        </mxCell>
        <mxCell id="MQe5v7_Gc90HaRo5Ww73-257" value="1" style="edgeLabel;html=1;align=center;verticalAlign=middle;resizable=0;points=[];" connectable="0" vertex="1" parent="ysO53gmpqXJOio8Yze6U-77">
          <mxGeometry x="-0.5901" y="4" relative="1" as="geometry">
            <mxPoint x="-12" as="offset" />
          </mxGeometry>
        </mxCell>
        <mxCell id="ysO53gmpqXJOio8Yze6U-79" value="" style="endArrow=none;html=1;rounded=0;fontSize=6;exitX=0.5;exitY=0;exitDx=0;exitDy=0;entryX=0.5;entryY=1;entryDx=0;entryDy=0;" edge="1" parent="1" source="ysO53gmpqXJOio8Yze6U-71" target="IohPTmHqKFWFCZx8HS5S-2">
          <mxGeometry width="50" height="50" relative="1" as="geometry">
            <mxPoint x="853.75" y="226" as="sourcePoint" />
            <mxPoint x="928.75" y="-124" as="targetPoint" />
          </mxGeometry>
        </mxCell>
        <mxCell id="ysO53gmpqXJOio8Yze6U-85" value="&lt;u style=&quot;font-size: 8px;&quot;&gt;ID&lt;/u&gt;" style="ellipse;whiteSpace=wrap;html=1;align=center;fontSize=8;" vertex="1" parent="1">
          <mxGeometry x="1038.75" y="439" width="60" height="29" as="geometry" />
        </mxCell>
        <mxCell id="ysO53gmpqXJOio8Yze6U-86" value="Nama" style="ellipse;whiteSpace=wrap;html=1;align=center;fontSize=8;" vertex="1" parent="1">
          <mxGeometry x="1033.75" y="514.5" width="65" height="30" as="geometry" />
        </mxCell>
        <mxCell id="ysO53gmpqXJOio8Yze6U-92" value="" style="html=1;rounded=0;exitX=0;exitY=0.5;exitDx=0;exitDy=0;entryX=1;entryY=0.5;entryDx=0;entryDy=0;endArrow=none;endFill=0;" edge="1" parent="1">
          <mxGeometry relative="1" as="geometry">
            <mxPoint x="1553" y="243" as="sourcePoint" />
            <mxPoint x="1397.5" y="243.5" as="targetPoint" />
          </mxGeometry>
        </mxCell>
        <mxCell id="MQe5v7_Gc90HaRo5Ww73-263" value="1" style="edgeLabel;html=1;align=center;verticalAlign=middle;resizable=0;points=[];" connectable="0" vertex="1" parent="ysO53gmpqXJOio8Yze6U-92">
          <mxGeometry x="0.6554" y="-1" relative="1" as="geometry">
            <mxPoint x="121" y="-12" as="offset" />
          </mxGeometry>
        </mxCell>
        <mxCell id="ysO53gmpqXJOio8Yze6U-97" value="" style="endArrow=none;html=1;rounded=0;entryX=0.5;entryY=0;entryDx=0;entryDy=0;exitX=0.5;exitY=1;exitDx=0;exitDy=0;" edge="1" parent="1" source="MQe5v7_Gc90HaRo5Ww73-35" target="MQe5v7_Gc90HaRo5Ww73-33">
          <mxGeometry relative="1" as="geometry">
            <mxPoint x="1670" y="243" as="sourcePoint" />
            <mxPoint x="1753" y="242.89" as="targetPoint" />
          </mxGeometry>
        </mxCell>
        <mxCell id="ysO53gmpqXJOio8Yze6U-99" value="Tanggal" style="ellipse;whiteSpace=wrap;html=1;align=center;fontSize=8;" vertex="1" parent="1">
          <mxGeometry x="1700" y="456" width="65" height="30" as="geometry" />
        </mxCell>
        <mxCell id="ysO53gmpqXJOio8Yze6U-100" value="Nama_pekerja" style="ellipse;whiteSpace=wrap;html=1;align=center;fontSize=8;" vertex="1" parent="1">
          <mxGeometry x="1760" y="484.5" width="65" height="30" as="geometry" />
        </mxCell>
        <mxCell id="ysO53gmpqXJOio8Yze6U-102" value="Rating" style="ellipse;whiteSpace=wrap;html=1;align=center;fontSize=8;" vertex="1" parent="1">
          <mxGeometry x="1760" y="521" width="65" height="30" as="geometry" />
        </mxCell>
        <mxCell id="ysO53gmpqXJOio8Yze6U-103" value="Komentar" style="ellipse;whiteSpace=wrap;html=1;align=center;fontSize=8;" vertex="1" parent="1">
          <mxGeometry x="1700" y="550" width="65" height="30" as="geometry" />
        </mxCell>
        <mxCell id="ysO53gmpqXJOio8Yze6U-104" value="" style="endArrow=none;html=1;rounded=0;exitX=1;exitY=0.5;exitDx=0;exitDy=0;entryX=0;entryY=0.5;entryDx=0;entryDy=0;" edge="1" parent="1" target="ysO53gmpqXJOio8Yze6U-99">
          <mxGeometry relative="1" as="geometry">
            <mxPoint x="1666" y="516" as="sourcePoint" />
            <mxPoint x="1725.9999999999864" y="435" as="targetPoint" />
          </mxGeometry>
        </mxCell>
        <mxCell id="ysO53gmpqXJOio8Yze6U-105" value="" style="endArrow=none;html=1;rounded=0;exitX=1;exitY=0.5;exitDx=0;exitDy=0;entryX=0.001;entryY=0.547;entryDx=0;entryDy=0;entryPerimeter=0;" edge="1" parent="1" target="ysO53gmpqXJOio8Yze6U-100">
          <mxGeometry relative="1" as="geometry">
            <mxPoint x="1666" y="516" as="sourcePoint" />
            <mxPoint x="1725.9999999999864" y="476" as="targetPoint" />
          </mxGeometry>
        </mxCell>
        <mxCell id="ysO53gmpqXJOio8Yze6U-107" value="" style="endArrow=none;html=1;rounded=0;entryX=0;entryY=0.5;entryDx=0;entryDy=0;exitX=1;exitY=0.5;exitDx=0;exitDy=0;" edge="1" parent="1" target="ysO53gmpqXJOio8Yze6U-102">
          <mxGeometry relative="1" as="geometry">
            <mxPoint x="1666" y="516" as="sourcePoint" />
            <mxPoint x="1725.9999999999864" y="556.5" as="targetPoint" />
          </mxGeometry>
        </mxCell>
        <mxCell id="ysO53gmpqXJOio8Yze6U-108" value="" style="endArrow=none;html=1;rounded=0;entryX=0;entryY=0.5;entryDx=0;entryDy=0;exitX=1;exitY=0.5;exitDx=0;exitDy=0;" edge="1" parent="1" target="ysO53gmpqXJOio8Yze6U-103">
          <mxGeometry relative="1" as="geometry">
            <mxPoint x="1666" y="516" as="sourcePoint" />
            <mxPoint x="1725.9999999999864" y="596" as="targetPoint" />
          </mxGeometry>
        </mxCell>
        <mxCell id="ysO53gmpqXJOio8Yze6U-115" value="&lt;u&gt;ID&lt;/u&gt;" style="ellipse;whiteSpace=wrap;html=1;align=center;fontSize=7;" vertex="1" parent="1">
          <mxGeometry x="1170" y="381" width="65" height="29" as="geometry" />
        </mxCell>
        <mxCell id="ysO53gmpqXJOio8Yze6U-118" value="Tanggal_pemesanan" style="ellipse;whiteSpace=wrap;html=1;align=center;fontSize=7;" vertex="1" parent="1">
          <mxGeometry x="1235" y="439" width="65" height="29" as="geometry" />
        </mxCell>
        <mxCell id="ysO53gmpqXJOio8Yze6U-120" value="Tanggal_pengerjaan" style="ellipse;whiteSpace=wrap;html=1;align=center;fontSize=7;" vertex="1" parent="1">
          <mxGeometry x="1387.5" y="420" width="65" height="29" as="geometry" />
        </mxCell>
        <mxCell id="ysO53gmpqXJOio8Yze6U-128" value="Sesi_layanan" style="ellipse;whiteSpace=wrap;html=1;align=center;fontSize=7;" vertex="1" parent="1">
          <mxGeometry x="1430" y="391" width="65" height="29" as="geometry" />
        </mxCell>
        <mxCell id="ysO53gmpqXJOio8Yze6U-130" value="Biaya_layanan" style="ellipse;whiteSpace=wrap;html=1;align=center;fontSize=7;" vertex="1" parent="1">
          <mxGeometry x="1450" y="355" width="65" height="29" as="geometry" />
        </mxCell>
        <mxCell id="ysO53gmpqXJOio8Yze6U-132" value="Kode_diskon" style="ellipse;whiteSpace=wrap;html=1;align=center;fontSize=7;" vertex="1" parent="1">
          <mxGeometry x="1445" y="286" width="65" height="29" as="geometry" />
        </mxCell>
        <mxCell id="ysO53gmpqXJOio8Yze6U-133" value="" style="endArrow=none;html=1;rounded=0;dashed=1;dashPattern=1 2;exitX=0;exitY=0.5;exitDx=0;exitDy=0;entryX=1;entryY=1;entryDx=0;entryDy=0;" edge="1" parent="1" source="ysO53gmpqXJOio8Yze6U-132" target="MQe5v7_Gc90HaRo5Ww73-187">
          <mxGeometry relative="1" as="geometry">
            <mxPoint x="1237.5" y="398" as="sourcePoint" />
            <mxPoint x="1337.5" y="268" as="targetPoint" />
          </mxGeometry>
        </mxCell>
        <mxCell id="ysO53gmpqXJOio8Yze6U-135" value="Nama_pekerja" style="ellipse;whiteSpace=wrap;html=1;align=center;fontSize=7;" vertex="1" parent="1">
          <mxGeometry x="1200" y="410" width="65" height="29" as="geometry" />
        </mxCell>
        <mxCell id="ysO53gmpqXJOio8Yze6U-138" value="BIAYA_TOTAL" style="ellipse;whiteSpace=wrap;html=1;align=center;dashed=1;fontSize=8;" vertex="1" parent="1">
          <mxGeometry x="1460" y="320" width="65" height="30" as="geometry" />
        </mxCell>
        <mxCell id="MQe5v7_Gc90HaRo5Ww73-6" value="DAPAT_&lt;div&gt;MENGGUNAKAN&lt;/div&gt;" style="shape=rhombus;perimeter=rhombusPerimeter;whiteSpace=wrap;html=1;align=center;fontSize=10;" vertex="1" parent="1">
          <mxGeometry x="913.5" y="137" width="120" height="60" as="geometry" />
        </mxCell>
        <mxCell id="MQe5v7_Gc90HaRo5Ww73-7" value="" style="endArrow=none;html=1;rounded=0;entryX=0.312;entryY=0.813;entryDx=0;entryDy=0;exitX=0.5;exitY=0;exitDx=0;exitDy=0;entryPerimeter=0;" edge="1" parent="1" source="ncbK7_a8ExB3OuaiVnW2-6" target="MQe5v7_Gc90HaRo5Ww73-6">
          <mxGeometry width="50" height="50" relative="1" as="geometry">
            <mxPoint x="657" y="92" as="sourcePoint" />
            <mxPoint x="685" y="55" as="targetPoint" />
          </mxGeometry>
        </mxCell>
        <mxCell id="MQe5v7_Gc90HaRo5Ww73-273" value="1" style="edgeLabel;html=1;align=center;verticalAlign=middle;resizable=0;points=[];" connectable="0" vertex="1" parent="MQe5v7_Gc90HaRo5Ww73-7">
          <mxGeometry x="0.7953" y="-2" relative="1" as="geometry">
            <mxPoint x="22" y="-8" as="offset" />
          </mxGeometry>
        </mxCell>
        <mxCell id="MQe5v7_Gc90HaRo5Ww73-8" value="1" style="endArrow=none;html=1;rounded=0;entryX=0.5;entryY=1;entryDx=0;entryDy=0;exitX=0.5;exitY=0;exitDx=0;exitDy=0;" edge="1" parent="1" source="MQe5v7_Gc90HaRo5Ww73-6" target="IohPTmHqKFWFCZx8HS5S-1">
          <mxGeometry x="-0.5205" y="-6" width="50" height="50" relative="1" as="geometry">
            <mxPoint x="883.75" y="226" as="sourcePoint" />
            <mxPoint x="983.75" y="171" as="targetPoint" />
            <mxPoint as="offset" />
          </mxGeometry>
        </mxCell>
        <mxCell id="MQe5v7_Gc90HaRo5Ww73-9" value="" style="endArrow=none;html=1;rounded=0;exitX=0;exitY=0.5;exitDx=0;exitDy=0;entryX=1;entryY=1;entryDx=0;entryDy=0;" edge="1" parent="1" source="MQe5v7_Gc90HaRo5Ww73-121" target="IohPTmHqKFWFCZx8HS5S-1">
          <mxGeometry width="50" height="50" relative="1" as="geometry">
            <mxPoint x="1144.5" y="43" as="sourcePoint" />
            <mxPoint x="800" y="50" as="targetPoint" />
          </mxGeometry>
        </mxCell>
        <mxCell id="MQe5v7_Gc90HaRo5Ww73-256" value="1" style="edgeLabel;html=1;align=center;verticalAlign=middle;resizable=0;points=[];" connectable="0" vertex="1" parent="MQe5v7_Gc90HaRo5Ww73-9">
          <mxGeometry x="-0.2327" relative="1" as="geometry">
            <mxPoint x="30" y="5" as="offset" />
          </mxGeometry>
        </mxCell>
        <mxCell id="MQe5v7_Gc90HaRo5Ww73-33" value="TESTIMONI" style="shape=ext;margin=3;double=1;whiteSpace=wrap;html=1;align=center;fontSize=10;" vertex="1" parent="1">
          <mxGeometry x="1545.5" y="491" width="120" height="50" as="geometry" />
        </mxCell>
        <mxCell id="MQe5v7_Gc90HaRo5Ww73-35" value="MENGHASILKAN" style="shape=rhombus;double=1;perimeter=rhombusPerimeter;whiteSpace=wrap;html=1;align=center;fontSize=10;" vertex="1" parent="1">
          <mxGeometry x="1545.5" y="213" width="120" height="60" as="geometry" />
        </mxCell>
        <mxCell id="MQe5v7_Gc90HaRo5Ww73-42" value="" style="endArrow=none;html=1;rounded=0;exitX=0.5;exitY=1;exitDx=0;exitDy=0;entryX=0;entryY=0.5;entryDx=0;entryDy=0;" edge="1" parent="1" source="ysO53gmpqXJOio8Yze6U-85" target="uouoK4kSIx4TAbE6jxIn-7">
          <mxGeometry width="50" height="50" relative="1" as="geometry">
            <mxPoint x="1006" y="645" as="sourcePoint" />
            <mxPoint x="1030" y="620" as="targetPoint" />
          </mxGeometry>
        </mxCell>
        <mxCell id="MQe5v7_Gc90HaRo5Ww73-43" value="" style="endArrow=none;html=1;rounded=0;exitX=0.5;exitY=0;exitDx=0;exitDy=0;entryX=0;entryY=0.5;entryDx=0;entryDy=0;" edge="1" parent="1" source="ysO53gmpqXJOio8Yze6U-86" target="uouoK4kSIx4TAbE6jxIn-7">
          <mxGeometry width="50" height="50" relative="1" as="geometry">
            <mxPoint x="1009" y="689" as="sourcePoint" />
            <mxPoint x="1026" y="619.2600000000002" as="targetPoint" />
          </mxGeometry>
        </mxCell>
        <mxCell id="MQe5v7_Gc90HaRo5Ww73-49" value="" style="endArrow=none;html=1;rounded=0;exitX=0.5;exitY=0;exitDx=0;exitDy=0;entryX=0.5;entryY=1;entryDx=0;entryDy=0;" edge="1" parent="1" source="ncbK7_a8ExB3OuaiVnW2-2" target="_03kfTIoiXYOY-0oubUg-9">
          <mxGeometry width="50" height="50" relative="1" as="geometry">
            <mxPoint x="367.5" y="663.5" as="sourcePoint" />
            <mxPoint x="317.5" y="713.5" as="targetPoint" />
          </mxGeometry>
        </mxCell>
        <mxCell id="MQe5v7_Gc90HaRo5Ww73-50" value="" style="endArrow=none;html=1;rounded=0;exitX=0.5;exitY=0;exitDx=0;exitDy=0;entryX=0.5;entryY=1;entryDx=0;entryDy=0;" edge="1" parent="1" source="ncbK7_a8ExB3OuaiVnW2-2" target="_03kfTIoiXYOY-0oubUg-8">
          <mxGeometry width="50" height="50" relative="1" as="geometry">
            <mxPoint x="460.95238095238074" y="691.5" as="sourcePoint" />
            <mxPoint x="504.95238095238074" y="714.5" as="targetPoint" />
          </mxGeometry>
        </mxCell>
        <mxCell id="MQe5v7_Gc90HaRo5Ww73-52" value="" style="endArrow=none;html=1;rounded=0;exitX=0.5;exitY=0;exitDx=0;exitDy=0;entryX=0.5;entryY=1;entryDx=0;entryDy=0;" edge="1" parent="1" source="ncbK7_a8ExB3OuaiVnW2-2" target="_03kfTIoiXYOY-0oubUg-7">
          <mxGeometry width="50" height="50" relative="1" as="geometry">
            <mxPoint x="522.5" y="671.5" as="sourcePoint" />
            <mxPoint x="566.5" y="694.5" as="targetPoint" />
          </mxGeometry>
        </mxCell>
        <mxCell id="MQe5v7_Gc90HaRo5Ww73-53" value="" style="endArrow=none;html=1;rounded=0;exitX=0;exitY=0.5;exitDx=0;exitDy=0;entryX=1;entryY=0.5;entryDx=0;entryDy=0;shape=link;" edge="1" parent="1" source="ncbK7_a8ExB3OuaiVnW2-2">
          <mxGeometry width="50" height="50" relative="1" as="geometry">
            <mxPoint x="590.0000000000045" y="765.4523809523812" as="sourcePoint" />
            <mxPoint x="360.0000000000002" y="749.5" as="targetPoint" />
          </mxGeometry>
        </mxCell>
        <mxCell id="Wp24yLrDPl7JVGT7pD6Z-14" value="1" style="edgeLabel;html=1;align=center;verticalAlign=middle;resizable=0;points=[];" connectable="0" vertex="1" parent="MQe5v7_Gc90HaRo5Ww73-53">
          <mxGeometry x="0.536" y="2" relative="1" as="geometry">
            <mxPoint x="-12" y="-18" as="offset" />
          </mxGeometry>
        </mxCell>
        <mxCell id="MQe5v7_Gc90HaRo5Ww73-54" value="" style="endArrow=none;html=1;rounded=0;exitX=0.5;exitY=1;exitDx=0;exitDy=0;entryX=0.5;entryY=0;entryDx=0;entryDy=0;" edge="1" parent="1" source="ncbK7_a8ExB3OuaiVnW2-2" target="_03kfTIoiXYOY-0oubUg-6">
          <mxGeometry width="50" height="50" relative="1" as="geometry">
            <mxPoint x="382.5" y="832.5000000000005" as="sourcePoint" />
            <mxPoint x="426.5" y="855.5000000000005" as="targetPoint" />
          </mxGeometry>
        </mxCell>
        <mxCell id="MQe5v7_Gc90HaRo5Ww73-55" value="" style="endArrow=none;html=1;rounded=0;exitX=0.5;exitY=1;exitDx=0;exitDy=0;entryX=0.5;entryY=0;entryDx=0;entryDy=0;" edge="1" parent="1" source="ncbK7_a8ExB3OuaiVnW2-2" target="_03kfTIoiXYOY-0oubUg-1">
          <mxGeometry width="50" height="50" relative="1" as="geometry">
            <mxPoint x="460.95238095238074" y="782.5000000000005" as="sourcePoint" />
            <mxPoint x="504.95238095238074" y="764.5000000000005" as="targetPoint" />
          </mxGeometry>
        </mxCell>
        <mxCell id="MQe5v7_Gc90HaRo5Ww73-56" value="" style="endArrow=none;html=1;rounded=0;entryX=0.5;entryY=0;entryDx=0;entryDy=0;exitX=0.5;exitY=1;exitDx=0;exitDy=0;" edge="1" parent="1" source="ncbK7_a8ExB3OuaiVnW2-2" target="_03kfTIoiXYOY-0oubUg-4">
          <mxGeometry width="50" height="50" relative="1" as="geometry">
            <mxPoint x="552.5" y="794.5000000000005" as="sourcePoint" />
            <mxPoint x="514.5" y="764.5000000000005" as="targetPoint" />
          </mxGeometry>
        </mxCell>
        <mxCell id="MQe5v7_Gc90HaRo5Ww73-72" value="" style="endArrow=none;html=1;rounded=0;exitX=0.217;exitY=0.865;exitDx=0;exitDy=0;exitPerimeter=0;entryX=0.5;entryY=0;entryDx=0;entryDy=0;" edge="1" parent="1" source="_03kfTIoiXYOY-0oubUg-5" target="ncbK7_a8ExB3OuaiVnW2-2">
          <mxGeometry relative="1" as="geometry">
            <mxPoint x="440" y="758" as="sourcePoint" />
            <mxPoint x="600" y="758" as="targetPoint" />
          </mxGeometry>
        </mxCell>
        <mxCell id="MQe5v7_Gc90HaRo5Ww73-79" value="" style="endArrow=none;html=1;rounded=0;fontSize=6;exitX=0;exitY=0.75;exitDx=0;exitDy=0;entryX=1;entryY=0.5;entryDx=0;entryDy=0;" edge="1" parent="1" source="ncbK7_a8ExB3OuaiVnW2-6" target="Wp24yLrDPl7JVGT7pD6Z-10">
          <mxGeometry width="50" height="50" relative="1" as="geometry">
            <mxPoint x="645" y="362" as="sourcePoint" />
            <mxPoint x="515" y="387.5" as="targetPoint" />
          </mxGeometry>
        </mxCell>
        <mxCell id="MQe5v7_Gc90HaRo5Ww73-84" value="&lt;font style=&quot;font-size: 12px;&quot;&gt;D&lt;/font&gt;" style="ellipse;whiteSpace=wrap;html=1;aspect=fixed;fontSize=6;" vertex="1" parent="1">
          <mxGeometry x="463.75" y="320" width="40" height="40" as="geometry" />
        </mxCell>
        <mxCell id="MQe5v7_Gc90HaRo5Ww73-86" value="&lt;span style=&quot;font-size: 7px;&quot;&gt;JUMLAH_TRANSAKSI&lt;/span&gt;" style="text;html=1;align=center;verticalAlign=middle;whiteSpace=wrap;rounded=0;rotation=0;fontSize=7;" vertex="1" parent="1">
          <mxGeometry x="512.5" y="325" width="60" height="30" as="geometry" />
        </mxCell>
        <mxCell id="MQe5v7_Gc90HaRo5Ww73-88" value="" style="endArrow=none;html=1;rounded=0;fontSize=6;entryX=0;entryY=0.5;entryDx=0;entryDy=0;exitX=1;exitY=0.5;exitDx=0;exitDy=0;" edge="1" parent="1" source="MQe5v7_Gc90HaRo5Ww73-95" target="MQe5v7_Gc90HaRo5Ww73-84">
          <mxGeometry width="50" height="50" relative="1" as="geometry">
            <mxPoint x="380" y="372" as="sourcePoint" />
            <mxPoint x="460" y="342" as="targetPoint" />
          </mxGeometry>
        </mxCell>
        <mxCell id="MQe5v7_Gc90HaRo5Ww73-90" value="" style="endArrow=none;html=1;rounded=0;fontSize=6;entryX=0;entryY=0.5;entryDx=0;entryDy=0;exitX=1;exitY=0.5;exitDx=0;exitDy=0;" edge="1" parent="1" source="MQe5v7_Gc90HaRo5Ww73-93" target="MQe5v7_Gc90HaRo5Ww73-84">
          <mxGeometry width="50" height="50" relative="1" as="geometry">
            <mxPoint x="380" y="322" as="sourcePoint" />
            <mxPoint x="474" y="350" as="targetPoint" />
          </mxGeometry>
        </mxCell>
        <mxCell id="MQe5v7_Gc90HaRo5Ww73-91" value="" style="endArrow=none;html=1;rounded=0;fontSize=6;entryX=0;entryY=0.5;entryDx=0;entryDy=0;exitX=1;exitY=0.5;exitDx=0;exitDy=0;" edge="1" parent="1" source="MQe5v7_Gc90HaRo5Ww73-92" target="MQe5v7_Gc90HaRo5Ww73-84">
          <mxGeometry width="50" height="50" relative="1" as="geometry">
            <mxPoint x="390" y="282" as="sourcePoint" />
            <mxPoint x="474" y="350" as="targetPoint" />
          </mxGeometry>
        </mxCell>
        <mxCell id="MQe5v7_Gc90HaRo5Ww73-92" value="BASIC" style="rounded=0;whiteSpace=wrap;html=1;fontSize=10;" vertex="1" parent="1">
          <mxGeometry x="177.5" y="192" width="120" height="50" as="geometry" />
        </mxCell>
        <mxCell id="MQe5v7_Gc90HaRo5Ww73-93" value="SILVER" style="rounded=0;whiteSpace=wrap;html=1;fontSize=10;" vertex="1" parent="1">
          <mxGeometry x="170" y="275.5" width="120" height="50" as="geometry" />
        </mxCell>
        <mxCell id="MQe5v7_Gc90HaRo5Ww73-95" value="GOLD" style="rounded=0;whiteSpace=wrap;html=1;fontSize=10;" vertex="1" parent="1">
          <mxGeometry x="170" y="360" width="120" height="50" as="geometry" />
        </mxCell>
        <mxCell id="MQe5v7_Gc90HaRo5Ww73-99" style="shape=link;rounded=0;orthogonalLoop=1;jettySize=auto;html=1;fontSize=6;verticalAlign=middle;exitX=1;exitY=0.665;exitDx=0;exitDy=0;entryX=0;entryY=0.5;entryDx=0;entryDy=0;exitPerimeter=0;" edge="1" parent="1" source="MQe5v7_Gc90HaRo5Ww73-84" target="ncbK7_a8ExB3OuaiVnW2-6">
          <mxGeometry relative="1" as="geometry">
            <mxPoint x="540" y="542" as="sourcePoint" />
            <mxPoint x="625" y="542" as="targetPoint" />
          </mxGeometry>
        </mxCell>
        <mxCell id="MQe5v7_Gc90HaRo5Ww73-100" value="0&amp;lt;=JUMLAH_TRANSAKSI&amp;lt;5" style="text;html=1;align=center;verticalAlign=middle;whiteSpace=wrap;rounded=0;rotation=40;fontSize=9;" vertex="1" parent="1">
          <mxGeometry x="360" y="255" width="60" height="32.5" as="geometry" />
        </mxCell>
        <mxCell id="MQe5v7_Gc90HaRo5Ww73-104" value="5&amp;lt;=JUMLAH_TRANSAKSI&amp;lt;30" style="text;html=1;align=center;verticalAlign=middle;whiteSpace=wrap;rounded=0;rotation=15;fontSize=9;" vertex="1" parent="1">
          <mxGeometry x="340" y="296.5" width="60" height="32.5" as="geometry" />
        </mxCell>
        <mxCell id="MQe5v7_Gc90HaRo5Ww73-109" value="JUMLAH_TRANSAKSI&amp;gt;=30" style="text;html=1;align=center;verticalAlign=middle;whiteSpace=wrap;rounded=0;rotation=-15;fontSize=9;" vertex="1" parent="1">
          <mxGeometry x="348.43" y="350" width="43.13" height="15.75" as="geometry" />
        </mxCell>
        <mxCell id="MQe5v7_Gc90HaRo5Ww73-113" value="" style="endArrow=none;html=1;rounded=0;fontSize=6;exitX=0;exitY=0.5;exitDx=0;exitDy=0;entryX=1;entryY=1;entryDx=0;entryDy=0;" edge="1" parent="1" source="ysO53gmpqXJOio8Yze6U-71" target="MQe5v7_Gc90HaRo5Ww73-114">
          <mxGeometry width="50" height="50" relative="1" as="geometry">
            <mxPoint x="713.75" y="142" as="sourcePoint" />
            <mxPoint x="730" y="106" as="targetPoint" />
          </mxGeometry>
        </mxCell>
        <mxCell id="MQe5v7_Gc90HaRo5Ww73-114" value="ID transaksi" style="ellipse;whiteSpace=wrap;html=1;align=center;fontSize=8;" vertex="1" parent="1">
          <mxGeometry x="355" y="71.5" width="65" height="30" as="geometry" />
        </mxCell>
        <mxCell id="MQe5v7_Gc90HaRo5Ww73-115" value="Tanggal Pembelian" style="ellipse;whiteSpace=wrap;html=1;align=center;fontSize=8;" vertex="1" parent="1">
          <mxGeometry x="326.56" y="102" width="65" height="30" as="geometry" />
        </mxCell>
        <mxCell id="MQe5v7_Gc90HaRo5Ww73-116" value="" style="endArrow=none;html=1;rounded=0;fontSize=6;exitX=0;exitY=0.5;exitDx=0;exitDy=0;entryX=1;entryY=1;entryDx=0;entryDy=0;" edge="1" parent="1" source="ysO53gmpqXJOio8Yze6U-71" target="MQe5v7_Gc90HaRo5Ww73-115">
          <mxGeometry width="50" height="50" relative="1" as="geometry">
            <mxPoint x="713.75" y="142" as="sourcePoint" />
            <mxPoint x="731" y="109" as="targetPoint" />
          </mxGeometry>
        </mxCell>
        <mxCell id="MQe5v7_Gc90HaRo5Ww73-117" value="Nama voucher" style="ellipse;whiteSpace=wrap;html=1;align=center;fontSize=8;" vertex="1" parent="1">
          <mxGeometry x="326.56" y="137" width="65" height="30" as="geometry" />
        </mxCell>
        <mxCell id="MQe5v7_Gc90HaRo5Ww73-118" value="" style="endArrow=none;html=1;rounded=0;fontSize=6;exitX=0;exitY=0.5;exitDx=0;exitDy=0;entryX=1;entryY=0.5;entryDx=0;entryDy=0;" edge="1" parent="1" source="ysO53gmpqXJOio8Yze6U-71" target="MQe5v7_Gc90HaRo5Ww73-117">
          <mxGeometry width="50" height="50" relative="1" as="geometry">
            <mxPoint x="713.75" y="142" as="sourcePoint" />
            <mxPoint x="734" y="142" as="targetPoint" />
          </mxGeometry>
        </mxCell>
        <mxCell id="MQe5v7_Gc90HaRo5Ww73-119" value="Harga voucher" style="ellipse;whiteSpace=wrap;html=1;align=center;fontSize=8;" vertex="1" parent="1">
          <mxGeometry x="355" y="167" width="65" height="30" as="geometry" />
        </mxCell>
        <mxCell id="MQe5v7_Gc90HaRo5Ww73-120" value="" style="endArrow=none;html=1;rounded=0;fontSize=6;exitX=0;exitY=0.5;exitDx=0;exitDy=0;entryX=1;entryY=0.5;entryDx=0;entryDy=0;" edge="1" parent="1" source="ysO53gmpqXJOio8Yze6U-71" target="MQe5v7_Gc90HaRo5Ww73-119">
          <mxGeometry width="50" height="50" relative="1" as="geometry">
            <mxPoint x="713.75" y="142" as="sourcePoint" />
            <mxPoint x="720" y="196" as="targetPoint" />
          </mxGeometry>
        </mxCell>
        <mxCell id="MQe5v7_Gc90HaRo5Ww73-121" value="MENGGUNAKAN" style="shape=rhombus;perimeter=rhombusPerimeter;whiteSpace=wrap;html=1;align=center;fontSize=10;" vertex="1" parent="1">
          <mxGeometry x="1129.5" y="86.02" width="120" height="60" as="geometry" />
        </mxCell>
        <mxCell id="MQe5v7_Gc90HaRo5Ww73-122" value="MEMBUAT" style="shape=rhombus;perimeter=rhombusPerimeter;whiteSpace=wrap;html=1;align=center;fontSize=10;" vertex="1" parent="1">
          <mxGeometry x="954.25" y="213" width="120" height="60" as="geometry" />
        </mxCell>
        <mxCell id="MQe5v7_Gc90HaRo5Ww73-124" value="MENERIMA" style="shape=rhombus;double=1;perimeter=rhombusPerimeter;whiteSpace=wrap;html=1;align=center;fontSize=10;" vertex="1" parent="1">
          <mxGeometry x="1545.5" y="719.5" width="120" height="60" as="geometry" />
        </mxCell>
        <mxCell id="MQe5v7_Gc90HaRo5Ww73-125" value="" style="endArrow=none;html=1;rounded=0;entryX=0;entryY=0.5;entryDx=0;entryDy=0;exitX=1;exitY=0.5;exitDx=0;exitDy=0;" edge="1" parent="1" source="ncbK7_a8ExB3OuaiVnW2-7" target="MQe5v7_Gc90HaRo5Ww73-124">
          <mxGeometry relative="1" as="geometry">
            <mxPoint x="1022" y="795" as="sourcePoint" />
            <mxPoint x="1078" y="916" as="targetPoint" />
          </mxGeometry>
        </mxCell>
        <mxCell id="MQe5v7_Gc90HaRo5Ww73-271" value="1" style="edgeLabel;html=1;align=center;verticalAlign=middle;resizable=0;points=[];" connectable="0" vertex="1" parent="MQe5v7_Gc90HaRo5Ww73-125">
          <mxGeometry x="0.858" y="-1" relative="1" as="geometry">
            <mxPoint x="26" y="9" as="offset" />
          </mxGeometry>
        </mxCell>
        <mxCell id="MQe5v7_Gc90HaRo5Ww73-128" value="" style="endArrow=none;html=1;rounded=0;entryX=0.5;entryY=0;entryDx=0;entryDy=0;exitX=0.5;exitY=1;exitDx=0;exitDy=0;shape=link;" edge="1" parent="1" source="MQe5v7_Gc90HaRo5Ww73-33" target="MQe5v7_Gc90HaRo5Ww73-124">
          <mxGeometry relative="1" as="geometry">
            <mxPoint x="1042" y="850" as="sourcePoint" />
            <mxPoint x="1098" y="971" as="targetPoint" />
          </mxGeometry>
        </mxCell>
        <mxCell id="MQe5v7_Gc90HaRo5Ww73-270" value="N" style="edgeLabel;html=1;align=center;verticalAlign=middle;resizable=0;points=[];" connectable="0" vertex="1" parent="MQe5v7_Gc90HaRo5Ww73-128">
          <mxGeometry x="-0.7876" relative="1" as="geometry">
            <mxPoint x="15" y="159" as="offset" />
          </mxGeometry>
        </mxCell>
        <mxCell id="MQe5v7_Gc90HaRo5Ww73-154" value="&lt;span style=&quot;border-bottom: 1px dotted&quot;&gt;ID&lt;/span&gt;" style="ellipse;whiteSpace=wrap;html=1;align=center;" vertex="1" parent="1">
          <mxGeometry x="791.5" y="390" width="65" height="30" as="geometry" />
        </mxCell>
        <mxCell id="MQe5v7_Gc90HaRo5Ww73-155" value="" style="endArrow=none;html=1;rounded=0;exitX=0.5;exitY=1;exitDx=0;exitDy=0;entryX=0.5;entryY=0;entryDx=0;entryDy=0;" edge="1" parent="1" source="MQe5v7_Gc90HaRo5Ww73-154" target="MQe5v7_Gc90HaRo5Ww73-159">
          <mxGeometry relative="1" as="geometry">
            <mxPoint x="783.7499999999999" y="425.4999999999999" as="sourcePoint" />
            <mxPoint x="884.7399999999997" y="479.02999999999986" as="targetPoint" />
          </mxGeometry>
        </mxCell>
        <mxCell id="MQe5v7_Gc90HaRo5Ww73-158" value="MEMILIKI" style="shape=rhombus;double=1;perimeter=rhombusPerimeter;whiteSpace=wrap;html=1;align=center;fontSize=10;" vertex="1" parent="1">
          <mxGeometry x="928.25" y="461" width="120" height="60" as="geometry" />
        </mxCell>
        <mxCell id="MQe5v7_Gc90HaRo5Ww73-159" value="SUB_KATEGORI" style="shape=ext;margin=3;double=1;whiteSpace=wrap;html=1;align=center;fontSize=10;" vertex="1" parent="1">
          <mxGeometry x="764" y="458" width="120" height="50" as="geometry" />
        </mxCell>
        <mxCell id="MQe5v7_Gc90HaRo5Ww73-166" value="" style="endArrow=none;html=1;rounded=0;exitX=0;exitY=0.5;exitDx=0;exitDy=0;entryX=1;entryY=0.5;entryDx=0;entryDy=0;shape=link;" edge="1" parent="1">
          <mxGeometry width="50" height="50" relative="1" as="geometry">
            <mxPoint x="240" y="749.5" as="sourcePoint" />
            <mxPoint x="199.99999999999977" y="749.5" as="targetPoint" />
          </mxGeometry>
        </mxCell>
        <mxCell id="MQe5v7_Gc90HaRo5Ww73-175" value="Kategori_&lt;div&gt;transaksi&lt;/div&gt;" style="ellipse;shape=doubleEllipse;margin=3;whiteSpace=wrap;html=1;align=center;fontSize=8;" vertex="1" parent="1">
          <mxGeometry x="112" y="665" width="65" height="30" as="geometry" />
        </mxCell>
        <mxCell id="MQe5v7_Gc90HaRo5Ww73-176" value="" style="endArrow=none;html=1;rounded=0;entryX=0.513;entryY=0.064;entryDx=0;entryDy=0;exitX=0.508;exitY=-0.055;exitDx=0;exitDy=0;entryPerimeter=0;exitPerimeter=0;" edge="1" parent="1" source="MQe5v7_Gc90HaRo5Ww73-177" target="MQe5v7_Gc90HaRo5Ww73-175">
          <mxGeometry width="50" height="50" relative="1" as="geometry">
            <mxPoint x="99.5" y="606" as="sourcePoint" />
            <mxPoint x="144.5" y="536" as="targetPoint" />
          </mxGeometry>
        </mxCell>
        <mxCell id="MQe5v7_Gc90HaRo5Ww73-177" value="ID" style="ellipse;whiteSpace=wrap;html=1;align=center;fontSize=8;flipH=0;flipV=1;" vertex="1" parent="1">
          <mxGeometry x="69.5" y="601" width="65" height="29" as="geometry" />
        </mxCell>
        <mxCell id="MQe5v7_Gc90HaRo5Ww73-178" value="Nama" style="ellipse;whiteSpace=wrap;html=1;align=center;fontSize=8;flipH=0;flipV=1;" vertex="1" parent="1">
          <mxGeometry x="149.5" y="601" width="65" height="29" as="geometry" />
        </mxCell>
        <mxCell id="MQe5v7_Gc90HaRo5Ww73-179" value="" style="endArrow=none;html=1;rounded=0;entryX=0.498;entryY=0.064;entryDx=0;entryDy=0;exitX=0.5;exitY=1;exitDx=0;exitDy=0;entryPerimeter=0;" edge="1" parent="1" source="MQe5v7_Gc90HaRo5Ww73-178" target="MQe5v7_Gc90HaRo5Ww73-175">
          <mxGeometry width="50" height="50" relative="1" as="geometry">
            <mxPoint x="102.5" y="611" as="sourcePoint" />
            <mxPoint x="144.5" y="566" as="targetPoint" />
          </mxGeometry>
        </mxCell>
        <mxCell id="MQe5v7_Gc90HaRo5Ww73-187" value="TRANSAKSI_JASA" style="rounded=0;whiteSpace=wrap;html=1;fontSize=10;" vertex="1" parent="1">
          <mxGeometry x="1277.5" y="218" width="120" height="50" as="geometry" />
        </mxCell>
        <mxCell id="MQe5v7_Gc90HaRo5Ww73-193" value="Harga" style="ellipse;whiteSpace=wrap;html=1;align=center;fontSize=8;" vertex="1" parent="1">
          <mxGeometry x="889.25" y="590" width="65" height="30" as="geometry" />
        </mxCell>
        <mxCell id="MQe5v7_Gc90HaRo5Ww73-194" value="Sesi" style="ellipse;whiteSpace=wrap;html=1;align=center;fontSize=8;" vertex="1" parent="1">
          <mxGeometry x="805" y="590" width="65" height="30" as="geometry" />
        </mxCell>
        <mxCell id="MQe5v7_Gc90HaRo5Ww73-195" value="" style="endArrow=none;html=1;rounded=0;exitX=0.5;exitY=1;exitDx=0;exitDy=0;entryX=0.5;entryY=0;entryDx=0;entryDy=0;" edge="1" parent="1" source="uouoK4kSIx4TAbE6jxIn-50" target="MQe5v7_Gc90HaRo5Ww73-194">
          <mxGeometry relative="1" as="geometry">
            <mxPoint x="890.75" y="557" as="sourcePoint" />
            <mxPoint x="863.75" y="518" as="targetPoint" />
          </mxGeometry>
        </mxCell>
        <mxCell id="MQe5v7_Gc90HaRo5Ww73-197" value="" style="endArrow=none;html=1;rounded=0;exitX=0.5;exitY=1;exitDx=0;exitDy=0;entryX=0.5;entryY=0;entryDx=0;entryDy=0;" edge="1" parent="1" source="uouoK4kSIx4TAbE6jxIn-50">
          <mxGeometry relative="1" as="geometry">
            <mxPoint x="895.75" y="583" as="sourcePoint" />
            <mxPoint x="907" y="590" as="targetPoint" />
          </mxGeometry>
        </mxCell>
        <mxCell id="MQe5v7_Gc90HaRo5Ww73-199" value="MEMILIKI" style="shape=rhombus;double=1;perimeter=rhombusPerimeter;whiteSpace=wrap;html=1;align=center;fontSize=10;" vertex="1" parent="1">
          <mxGeometry x="240" y="719.5" width="120" height="60" as="geometry" />
        </mxCell>
        <mxCell id="MQe5v7_Gc90HaRo5Ww73-202" value="Waktu_pengerjaan" style="ellipse;whiteSpace=wrap;html=1;align=center;fontSize=7;" vertex="1" parent="1">
          <mxGeometry x="1182.5" y="287.5" width="65" height="29" as="geometry" />
        </mxCell>
        <mxCell id="MQe5v7_Gc90HaRo5Ww73-203" value="Kategori_jasa" style="ellipse;whiteSpace=wrap;html=1;align=center;fontSize=7;" vertex="1" parent="1">
          <mxGeometry x="1165.5" y="316.5" width="65" height="29" as="geometry" />
        </mxCell>
        <mxCell id="MQe5v7_Gc90HaRo5Ww73-204" value="SUBKATEGORI_&lt;div&gt;JASA&lt;/div&gt;" style="ellipse;whiteSpace=wrap;html=1;align=center;fontSize=7;" vertex="1" parent="1">
          <mxGeometry x="1155" y="350" width="65" height="29" as="geometry" />
        </mxCell>
        <mxCell id="MQe5v7_Gc90HaRo5Ww73-206" value="" style="endArrow=none;html=1;rounded=0;entryX=0;entryY=0.5;entryDx=0;entryDy=0;exitX=0.93;exitY=1.014;exitDx=0;exitDy=0;exitPerimeter=0;" edge="1" parent="1" source="MQe5v7_Gc90HaRo5Ww73-187" target="ysO53gmpqXJOio8Yze6U-138">
          <mxGeometry relative="1" as="geometry">
            <mxPoint x="1390" y="270" as="sourcePoint" />
            <mxPoint x="1383" y="419" as="targetPoint" />
          </mxGeometry>
        </mxCell>
        <mxCell id="MQe5v7_Gc90HaRo5Ww73-208" value="" style="endArrow=none;html=1;rounded=0;exitX=0.822;exitY=1.004;exitDx=0;exitDy=0;entryX=0;entryY=0.5;entryDx=0;entryDy=0;exitPerimeter=0;" edge="1" parent="1" source="MQe5v7_Gc90HaRo5Ww73-187" target="ysO53gmpqXJOio8Yze6U-130">
          <mxGeometry relative="1" as="geometry">
            <mxPoint x="1408" y="278" as="sourcePoint" />
            <mxPoint x="1483" y="372" as="targetPoint" />
          </mxGeometry>
        </mxCell>
        <mxCell id="MQe5v7_Gc90HaRo5Ww73-209" value="" style="endArrow=none;html=1;rounded=0;exitX=1;exitY=1;exitDx=0;exitDy=0;entryX=0;entryY=0;entryDx=0;entryDy=0;" edge="1" parent="1" target="ysO53gmpqXJOio8Yze6U-128">
          <mxGeometry relative="1" as="geometry">
            <mxPoint x="1370" y="268" as="sourcePoint" />
            <mxPoint x="1405.5000000000086" y="424.5" as="targetPoint" />
          </mxGeometry>
        </mxCell>
        <mxCell id="MQe5v7_Gc90HaRo5Ww73-210" value="" style="endArrow=none;html=1;rounded=0;exitX=0.75;exitY=1;exitDx=0;exitDy=0;entryX=0;entryY=0.5;entryDx=0;entryDy=0;" edge="1" parent="1" source="MQe5v7_Gc90HaRo5Ww73-187" target="ysO53gmpqXJOio8Yze6U-120">
          <mxGeometry relative="1" as="geometry">
            <mxPoint x="1408" y="278" as="sourcePoint" />
            <mxPoint x="1443" y="435" as="targetPoint" />
          </mxGeometry>
        </mxCell>
        <mxCell id="MQe5v7_Gc90HaRo5Ww73-214" value="" style="endArrow=none;html=1;rounded=0;exitX=1;exitY=0.5;exitDx=0;exitDy=0;entryX=0;entryY=0.5;entryDx=0;entryDy=0;" edge="1" parent="1" source="MQe5v7_Gc90HaRo5Ww73-158" target="uouoK4kSIx4TAbE6jxIn-7">
          <mxGeometry width="50" height="50" relative="1" as="geometry">
            <mxPoint x="1094" y="459" as="sourcePoint" />
            <mxPoint x="1138" y="503" as="targetPoint" />
          </mxGeometry>
        </mxCell>
        <mxCell id="Wp24yLrDPl7JVGT7pD6Z-23" value="1" style="edgeLabel;html=1;align=center;verticalAlign=middle;resizable=0;points=[];strokeColor=#E07A5F;fontColor=#393C56;fillColor=#F2CC8F;" connectable="0" vertex="1" parent="MQe5v7_Gc90HaRo5Ww73-214">
          <mxGeometry x="-0.2648" relative="1" as="geometry">
            <mxPoint x="-17" y="-8" as="offset" />
          </mxGeometry>
        </mxCell>
        <mxCell id="MQe5v7_Gc90HaRo5Ww73-216" value="" style="endArrow=none;html=1;rounded=0;exitX=1.01;exitY=0.64;exitDx=0;exitDy=0;exitPerimeter=0;entryX=0.015;entryY=0.5;entryDx=0;entryDy=0;entryPerimeter=0;" edge="1" parent="1" source="MQe5v7_Gc90HaRo5Ww73-159" target="MQe5v7_Gc90HaRo5Ww73-158">
          <mxGeometry width="50" height="50" relative="1" as="geometry">
            <mxPoint x="1056.25" y="501" as="sourcePoint" />
            <mxPoint x="914" y="490" as="targetPoint" />
          </mxGeometry>
        </mxCell>
        <mxCell id="Wp24yLrDPl7JVGT7pD6Z-24" value="N" style="edgeLabel;html=1;align=center;verticalAlign=middle;resizable=0;points=[];strokeColor=#E07A5F;fontColor=#393C56;fillColor=#F2CC8F;" connectable="0" vertex="1" parent="MQe5v7_Gc90HaRo5Ww73-216">
          <mxGeometry x="0.1771" y="2" relative="1" as="geometry">
            <mxPoint x="2" y="-6" as="offset" />
          </mxGeometry>
        </mxCell>
        <mxCell id="MQe5v7_Gc90HaRo5Ww73-217" value="MENGERJAKAN" style="shape=rhombus;perimeter=rhombusPerimeter;whiteSpace=wrap;html=1;align=center;fontSize=10;" vertex="1" parent="1">
          <mxGeometry x="1277.5" y="610.5" width="120" height="60" as="geometry" />
        </mxCell>
        <mxCell id="MQe5v7_Gc90HaRo5Ww73-220" value="" style="html=1;rounded=0;entryX=0;entryY=1;entryDx=0;entryDy=0;exitX=0.5;exitY=0;exitDx=0;exitDy=0;endArrow=none;endFill=0;" edge="1" parent="1" source="ncbK7_a8ExB3OuaiVnW2-7" target="MQe5v7_Gc90HaRo5Ww73-217">
          <mxGeometry relative="1" as="geometry">
            <mxPoint x="1022" y="745" as="sourcePoint" />
            <mxPoint x="1024" y="681" as="targetPoint" />
          </mxGeometry>
        </mxCell>
        <mxCell id="MQe5v7_Gc90HaRo5Ww73-267" value="1" style="edgeLabel;html=1;align=center;verticalAlign=middle;resizable=0;points=[];" connectable="0" vertex="1" parent="MQe5v7_Gc90HaRo5Ww73-220">
          <mxGeometry x="-0.1158" y="-1" relative="1" as="geometry">
            <mxPoint x="147" y="-33" as="offset" />
          </mxGeometry>
        </mxCell>
        <mxCell id="MQe5v7_Gc90HaRo5Ww73-221" value="" style="shape=link;html=1;rounded=0;entryX=0.5;entryY=1;entryDx=0;entryDy=0;exitX=0.5;exitY=0;exitDx=0;exitDy=0;" edge="1" parent="1" source="MQe5v7_Gc90HaRo5Ww73-217" target="MQe5v7_Gc90HaRo5Ww73-187">
          <mxGeometry relative="1" as="geometry">
            <mxPoint x="1229" y="605.5" as="sourcePoint" />
            <mxPoint x="1525" y="541.5" as="targetPoint" />
          </mxGeometry>
        </mxCell>
        <mxCell id="MQe5v7_Gc90HaRo5Ww73-224" value="" style="endArrow=none;html=1;rounded=0;exitX=1;exitY=0;exitDx=0;exitDy=0;entryX=0;entryY=1;entryDx=0;entryDy=0;" edge="1" parent="1" source="MQe5v7_Gc90HaRo5Ww73-202" target="MQe5v7_Gc90HaRo5Ww73-187">
          <mxGeometry relative="1" as="geometry">
            <mxPoint x="1180" y="330" as="sourcePoint" />
            <mxPoint x="1340" y="330" as="targetPoint" />
          </mxGeometry>
        </mxCell>
        <mxCell id="MQe5v7_Gc90HaRo5Ww73-225" value="" style="endArrow=none;html=1;rounded=0;exitX=1;exitY=0.5;exitDx=0;exitDy=0;entryX=0.115;entryY=0.997;entryDx=0;entryDy=0;entryPerimeter=0;" edge="1" parent="1" source="MQe5v7_Gc90HaRo5Ww73-203" target="MQe5v7_Gc90HaRo5Ww73-187">
          <mxGeometry relative="1" as="geometry">
            <mxPoint x="1248" y="302" as="sourcePoint" />
            <mxPoint x="1290" y="270" as="targetPoint" />
          </mxGeometry>
        </mxCell>
        <mxCell id="MQe5v7_Gc90HaRo5Ww73-226" value="" style="endArrow=none;html=1;rounded=0;exitX=1;exitY=0.5;exitDx=0;exitDy=0;entryX=0.171;entryY=1.001;entryDx=0;entryDy=0;entryPerimeter=0;" edge="1" parent="1" source="MQe5v7_Gc90HaRo5Ww73-204" target="MQe5v7_Gc90HaRo5Ww73-187">
          <mxGeometry relative="1" as="geometry">
            <mxPoint x="1245" y="344" as="sourcePoint" />
            <mxPoint x="1300" y="280" as="targetPoint" />
          </mxGeometry>
        </mxCell>
        <mxCell id="MQe5v7_Gc90HaRo5Ww73-227" value="" style="endArrow=none;html=1;rounded=0;exitX=1;exitY=0.5;exitDx=0;exitDy=0;entryX=0.25;entryY=1;entryDx=0;entryDy=0;" edge="1" parent="1" source="ysO53gmpqXJOio8Yze6U-115" target="MQe5v7_Gc90HaRo5Ww73-187">
          <mxGeometry relative="1" as="geometry">
            <mxPoint x="1257" y="375" as="sourcePoint" />
            <mxPoint x="1306" y="280" as="targetPoint" />
          </mxGeometry>
        </mxCell>
        <mxCell id="MQe5v7_Gc90HaRo5Ww73-228" value="" style="endArrow=none;html=1;rounded=0;exitX=1;exitY=0.5;exitDx=0;exitDy=0;entryX=0.309;entryY=1.008;entryDx=0;entryDy=0;entryPerimeter=0;" edge="1" parent="1" source="ysO53gmpqXJOio8Yze6U-135" target="MQe5v7_Gc90HaRo5Ww73-187">
          <mxGeometry relative="1" as="geometry">
            <mxPoint x="1275" y="410" as="sourcePoint" />
            <mxPoint x="1310" y="270" as="targetPoint" />
          </mxGeometry>
        </mxCell>
        <mxCell id="MQe5v7_Gc90HaRo5Ww73-229" value="" style="endArrow=none;html=1;rounded=0;exitX=1;exitY=0.5;exitDx=0;exitDy=0;entryX=0.399;entryY=1.003;entryDx=0;entryDy=0;entryPerimeter=0;" edge="1" parent="1" source="ysO53gmpqXJOio8Yze6U-118" target="MQe5v7_Gc90HaRo5Ww73-187">
          <mxGeometry relative="1" as="geometry">
            <mxPoint x="1290" y="435" as="sourcePoint" />
            <mxPoint x="1325" y="278" as="targetPoint" />
          </mxGeometry>
        </mxCell>
        <mxCell id="MQe5v7_Gc90HaRo5Ww73-233" value="" style="shape=link;html=1;rounded=0;exitX=0.75;exitY=0;exitDx=0;exitDy=0;entryX=0.5;entryY=1;entryDx=0;entryDy=0;" edge="1" parent="1" source="MQe5v7_Gc90HaRo5Ww73-187" target="MQe5v7_Gc90HaRo5Ww73-235">
          <mxGeometry relative="1" as="geometry">
            <mxPoint x="1320" y="210" as="sourcePoint" />
            <mxPoint x="1410" y="140" as="targetPoint" />
          </mxGeometry>
        </mxCell>
        <mxCell id="MQe5v7_Gc90HaRo5Ww73-235" value="MEMILIKI" style="shape=rhombus;double=1;perimeter=rhombusPerimeter;whiteSpace=wrap;html=1;align=center;fontSize=10;" vertex="1" parent="1">
          <mxGeometry x="1375" y="87" width="120" height="60" as="geometry" />
        </mxCell>
        <mxCell id="MQe5v7_Gc90HaRo5Ww73-236" value="MYPAY" style="shape=ext;margin=3;double=1;whiteSpace=wrap;html=1;align=center;fontSize=10;" vertex="1" parent="1">
          <mxGeometry x="85" y="723" width="120" height="50" as="geometry" />
        </mxCell>
        <mxCell id="MQe5v7_Gc90HaRo5Ww73-247" value="MENDAPAT" style="shape=rhombus;perimeter=rhombusPerimeter;whiteSpace=wrap;html=1;align=center;fontSize=10;" vertex="1" parent="1">
          <mxGeometry x="682.25" y="117" width="120" height="60" as="geometry" />
        </mxCell>
        <mxCell id="MQe5v7_Gc90HaRo5Ww73-248" value="" style="endArrow=none;html=1;rounded=0;fontSize=6;exitX=0.5;exitY=0;exitDx=0;exitDy=0;entryX=0.5;entryY=1;entryDx=0;entryDy=0;" edge="1" parent="1" source="ncbK7_a8ExB3OuaiVnW2-6" target="MQe5v7_Gc90HaRo5Ww73-247">
          <mxGeometry width="50" height="50" relative="1" as="geometry">
            <mxPoint x="645" y="362" as="sourcePoint" />
            <mxPoint x="520" y="187" as="targetPoint" />
          </mxGeometry>
        </mxCell>
        <mxCell id="MQe5v7_Gc90HaRo5Ww73-249" value="1" style="edgeLabel;html=1;align=center;verticalAlign=middle;resizable=0;points=[];" connectable="0" vertex="1" parent="MQe5v7_Gc90HaRo5Ww73-248">
          <mxGeometry x="-0.8348" y="1" relative="1" as="geometry">
            <mxPoint x="-113" y="-145" as="offset" />
          </mxGeometry>
        </mxCell>
        <mxCell id="MQe5v7_Gc90HaRo5Ww73-250" value="" style="endArrow=none;html=1;rounded=0;fontSize=6;entryX=0.5;entryY=1;entryDx=0;entryDy=0;exitX=0.5;exitY=0;exitDx=0;exitDy=0;" edge="1" parent="1" source="MQe5v7_Gc90HaRo5Ww73-247" target="IohPTmHqKFWFCZx8HS5S-3">
          <mxGeometry width="50" height="50" relative="1" as="geometry">
            <mxPoint x="742" y="110" as="sourcePoint" />
            <mxPoint x="752" y="187" as="targetPoint" />
          </mxGeometry>
        </mxCell>
        <mxCell id="MQe5v7_Gc90HaRo5Ww73-252" value="M" style="edgeLabel;html=1;align=center;verticalAlign=middle;resizable=0;points=[];" connectable="0" vertex="1" parent="1">
          <mxGeometry x="754.7477251064228" y="196.99528020239998" as="geometry">
            <mxPoint x="-2" y="-86" as="offset" />
          </mxGeometry>
        </mxCell>
        <mxCell id="MQe5v7_Gc90HaRo5Ww73-253" value="N" style="edgeLabel;html=1;align=center;verticalAlign=middle;resizable=0;points=[];" connectable="0" vertex="1" parent="1">
          <mxGeometry x="540.1050983121629" y="201.86114494518893" as="geometry">
            <mxPoint x="-40" y="-92" as="offset" />
          </mxGeometry>
        </mxCell>
        <mxCell id="MQe5v7_Gc90HaRo5Ww73-254" value="Saldo" style="ellipse;whiteSpace=wrap;html=1;align=center;fontSize=8;flipH=0;flipV=1;" vertex="1" parent="1">
          <mxGeometry x="4.5" y="733.5" width="65" height="29" as="geometry" />
        </mxCell>
        <mxCell id="MQe5v7_Gc90HaRo5Ww73-255" value="" style="endArrow=none;html=1;rounded=0;entryX=0;entryY=0.5;entryDx=0;entryDy=0;exitX=1;exitY=0.5;exitDx=0;exitDy=0;" edge="1" parent="1" source="MQe5v7_Gc90HaRo5Ww73-254" target="MQe5v7_Gc90HaRo5Ww73-236">
          <mxGeometry width="50" height="50" relative="1" as="geometry">
            <mxPoint x="140" y="800" as="sourcePoint" />
            <mxPoint x="154.99999999999977" y="784.5" as="targetPoint" />
          </mxGeometry>
        </mxCell>
        <mxCell id="Wp24yLrDPl7JVGT7pD6Z-18" style="rounded=0;orthogonalLoop=1;jettySize=auto;html=1;entryX=0.5;entryY=1;entryDx=0;entryDy=0;endArrow=none;endFill=0;exitX=0.5;exitY=0;exitDx=0;exitDy=0;" edge="1" parent="1" source="MQe5v7_Gc90HaRo5Ww73-258" target="Wp24yLrDPl7JVGT7pD6Z-20">
          <mxGeometry relative="1" as="geometry">
            <mxPoint x="1435" y="-48.480000000000246" as="targetPoint" />
          </mxGeometry>
        </mxCell>
        <mxCell id="MQe5v7_Gc90HaRo5Ww73-258" value="STATUS_TRANSAKSI" style="shape=ext;margin=3;double=1;whiteSpace=wrap;html=1;align=center;fontSize=10;" vertex="1" parent="1">
          <mxGeometry x="1375" width="120" height="50" as="geometry" />
        </mxCell>
        <mxCell id="MQe5v7_Gc90HaRo5Ww73-260" value="" style="shape=link;html=1;rounded=0;exitX=0.5;exitY=0;exitDx=0;exitDy=0;entryX=0.5;entryY=1;entryDx=0;entryDy=0;" edge="1" parent="1" source="MQe5v7_Gc90HaRo5Ww73-235" target="MQe5v7_Gc90HaRo5Ww73-258">
          <mxGeometry relative="1" as="geometry">
            <mxPoint x="1378" y="228" as="sourcePoint" />
            <mxPoint x="1424" y="144" as="targetPoint" />
          </mxGeometry>
        </mxCell>
        <mxCell id="MQe5v7_Gc90HaRo5Ww73-261" value="1" style="edgeLabel;html=1;align=center;verticalAlign=middle;resizable=0;points=[];" connectable="0" vertex="1" parent="MQe5v7_Gc90HaRo5Ww73-260">
          <mxGeometry x="-0.6538" y="-1" relative="1" as="geometry">
            <mxPoint x="14" y="6" as="offset" />
          </mxGeometry>
        </mxCell>
        <mxCell id="MQe5v7_Gc90HaRo5Ww73-262" value="1" style="edgeLabel;html=1;align=center;verticalAlign=middle;resizable=0;points=[];" connectable="0" vertex="1" parent="1">
          <mxGeometry x="1419.995542064452" y="147.0015233568694" as="geometry">
            <mxPoint x="-7" y="1" as="offset" />
          </mxGeometry>
        </mxCell>
        <mxCell id="MQe5v7_Gc90HaRo5Ww73-269" value="N" style="text;html=1;align=center;verticalAlign=middle;resizable=0;points=[];autosize=1;strokeColor=none;fillColor=none;" vertex="1" parent="1">
          <mxGeometry x="1335" y="590" width="30" height="30" as="geometry" />
        </mxCell>
        <mxCell id="MQe5v7_Gc90HaRo5Ww73-274" value="1" style="edgeLabel;html=1;align=center;verticalAlign=middle;resizable=0;points=[];" connectable="0" vertex="1" parent="1">
          <mxGeometry x="1555.426020657007" y="240.41341598594886" as="geometry">
            <mxPoint x="61" y="46" as="offset" />
          </mxGeometry>
        </mxCell>
        <mxCell id="MQe5v7_Gc90HaRo5Ww73-278" value="" style="endArrow=none;html=1;rounded=0;entryX=0.5;entryY=1;entryDx=0;entryDy=0;exitX=0.5;exitY=0;exitDx=0;exitDy=0;" edge="1" parent="1" source="MQe5v7_Gc90HaRo5Ww73-236" target="MQe5v7_Gc90HaRo5Ww73-175">
          <mxGeometry width="50" height="50" relative="1" as="geometry">
            <mxPoint x="155" y="813" as="sourcePoint" />
            <mxPoint x="155" y="783" as="targetPoint" />
          </mxGeometry>
        </mxCell>
        <mxCell id="Wp24yLrDPl7JVGT7pD6Z-8" value="Jumlah_pesanan" style="ellipse;whiteSpace=wrap;html=1;align=center;dashed=1;fontSize=8;" vertex="1" parent="1">
          <mxGeometry x="1080" y="806.5" width="65" height="30" as="geometry" />
        </mxCell>
        <mxCell id="Wp24yLrDPl7JVGT7pD6Z-9" value="" style="endArrow=none;html=1;rounded=0;entryX=0.5;entryY=0;entryDx=0;entryDy=0;exitX=0.5;exitY=1;exitDx=0;exitDy=0;" edge="1" parent="1" source="ncbK7_a8ExB3OuaiVnW2-7" target="Wp24yLrDPl7JVGT7pD6Z-8">
          <mxGeometry relative="1" as="geometry">
            <mxPoint x="1024" y="785" as="sourcePoint" />
            <mxPoint x="1054" y="817" as="targetPoint" />
          </mxGeometry>
        </mxCell>
        <mxCell id="Wp24yLrDPl7JVGT7pD6Z-10" value="Jumlah Transaksi" style="ellipse;whiteSpace=wrap;html=1;align=center;dashed=1;fontSize=8;" vertex="1" parent="1">
          <mxGeometry x="451.25" y="372" width="65" height="30" as="geometry" />
        </mxCell>
        <mxCell id="Wp24yLrDPl7JVGT7pD6Z-15" value="1" style="edgeLabel;html=1;align=center;verticalAlign=middle;resizable=0;points=[];" connectable="0" vertex="1" parent="1">
          <mxGeometry x="367.4999999999999" y="750.5" as="geometry">
            <mxPoint x="-129" y="-14" as="offset" />
          </mxGeometry>
        </mxCell>
        <mxCell id="Wp24yLrDPl7JVGT7pD6Z-20" value="&lt;span style=&quot;border-bottom: 1px dotted; font-size: 8px;&quot;&gt;ID&lt;/span&gt;" style="ellipse;whiteSpace=wrap;html=1;align=center;fontSize=8;" vertex="1" parent="1">
          <mxGeometry x="1355" y="-81.00000000000001" width="65" height="30" as="geometry" />
        </mxCell>
        <mxCell id="Wp24yLrDPl7JVGT7pD6Z-21" value="Status" style="ellipse;whiteSpace=wrap;html=1;align=center;fontSize=8;" vertex="1" parent="1">
          <mxGeometry x="1445" y="-81.00000000000001" width="65" height="30" as="geometry" />
        </mxCell>
        <mxCell id="Wp24yLrDPl7JVGT7pD6Z-22" style="rounded=0;orthogonalLoop=1;jettySize=auto;html=1;entryX=0.5;entryY=1;entryDx=0;entryDy=0;endArrow=none;endFill=0;exitX=0.5;exitY=0;exitDx=0;exitDy=0;" edge="1" parent="1" source="MQe5v7_Gc90HaRo5Ww73-258" target="Wp24yLrDPl7JVGT7pD6Z-21">
          <mxGeometry relative="1" as="geometry">
            <mxPoint x="1445" y="10" as="sourcePoint" />
            <mxPoint x="1398" y="-41" as="targetPoint" />
          </mxGeometry>
        </mxCell>
      </root>
    </mxGraphModel>
  </diagram>
</mxfile>
